<mxfile host="app.diagrams.net" modified="2023-06-14T17:02:26.366Z" agent="Mozilla/5.0 (Windows NT 10.0; Win64; x64) AppleWebKit/537.36 (KHTML, like Gecko) Chrome/112.0.0.0 Safari/537.36 OPR/98.0.0.0" etag="yioAiSMugx7oXDp8t1_-" version="21.3.8" type="google">
  <diagram id="C5RBs43oDa-KdzZeNtuy" name="Page-1">
    <mxGraphModel grid="0" page="0" gridSize="10" guides="1" tooltips="1" connect="1" arrows="1" fold="1" pageScale="1" pageWidth="827" pageHeight="1169" math="0" shadow="0">
      <root>
        <mxCell id="WIyWlLk6GJQsqaUBKTNV-0" />
        <mxCell id="WIyWlLk6GJQsqaUBKTNV-1" parent="WIyWlLk6GJQsqaUBKTNV-0" />
        <mxCell id="DvYviI5u5Ijabw_hEUCR-1" style="edgeStyle=orthogonalEdgeStyle;rounded=0;orthogonalLoop=1;jettySize=auto;html=1;exitX=0.5;exitY=1;exitDx=0;exitDy=0;entryX=0.5;entryY=0;entryDx=0;entryDy=0;" edge="1" parent="WIyWlLk6GJQsqaUBKTNV-1" source="WIyWlLk6GJQsqaUBKTNV-3" target="O5qcWpgSKs4IgxdbwhYX-0">
          <mxGeometry relative="1" as="geometry" />
        </mxCell>
        <mxCell id="WIyWlLk6GJQsqaUBKTNV-3" value="Program" style="rounded=1;whiteSpace=wrap;html=1;fontSize=12;glass=0;strokeWidth=1;shadow=0;fillColor=#a20025;fontColor=#ffffff;strokeColor=#6F0000;" vertex="1" parent="WIyWlLk6GJQsqaUBKTNV-1">
          <mxGeometry x="50" y="20" width="120" height="40" as="geometry" />
        </mxCell>
        <mxCell id="O5qcWpgSKs4IgxdbwhYX-10" value="" style="edgeStyle=orthogonalEdgeStyle;rounded=0;orthogonalLoop=1;jettySize=auto;html=1;" edge="1" parent="WIyWlLk6GJQsqaUBKTNV-1" source="O5qcWpgSKs4IgxdbwhYX-0" target="O5qcWpgSKs4IgxdbwhYX-9">
          <mxGeometry relative="1" as="geometry" />
        </mxCell>
        <mxCell id="0E-LU-rpmm0SCRFe6F6l-116" style="edgeStyle=orthogonalEdgeStyle;rounded=0;orthogonalLoop=1;jettySize=auto;html=1;exitX=0.5;exitY=1;exitDx=0;exitDy=0;entryX=0.5;entryY=0;entryDx=0;entryDy=0;" edge="1" parent="WIyWlLk6GJQsqaUBKTNV-1" source="O5qcWpgSKs4IgxdbwhYX-0" target="O5qcWpgSKs4IgxdbwhYX-467">
          <mxGeometry relative="1" as="geometry" />
        </mxCell>
        <mxCell id="O5qcWpgSKs4IgxdbwhYX-0" value="StatementList" style="rounded=1;whiteSpace=wrap;html=1;fontSize=12;glass=0;strokeWidth=1;shadow=0;fillColor=#008a00;fontColor=#ffffff;strokeColor=#005700;" vertex="1" parent="WIyWlLk6GJQsqaUBKTNV-1">
          <mxGeometry x="50" y="90" width="120" height="40" as="geometry" />
        </mxCell>
        <mxCell id="O5qcWpgSKs4IgxdbwhYX-1" value="FRAGMENT" style="rounded=1;whiteSpace=wrap;html=1;fontSize=12;glass=0;strokeWidth=1;shadow=0;fillColor=#1ba1e2;fontColor=#ffffff;strokeColor=#006EAF;" vertex="1" parent="WIyWlLk6GJQsqaUBKTNV-1">
          <mxGeometry x="370" y="30" width="120" height="40" as="geometry" />
        </mxCell>
        <mxCell id="O5qcWpgSKs4IgxdbwhYX-2" value="INTEGER" style="rounded=1;whiteSpace=wrap;html=1;fontSize=12;glass=0;strokeWidth=1;shadow=0;fillColor=#1ba1e2;fontColor=#ffffff;strokeColor=#006EAF;" vertex="1" parent="WIyWlLk6GJQsqaUBKTNV-1">
          <mxGeometry x="984" y="91" width="120" height="40" as="geometry" />
        </mxCell>
        <mxCell id="O5qcWpgSKs4IgxdbwhYX-5" value="&quot;Fatorial&quot;" style="rounded=1;whiteSpace=wrap;html=1;fontSize=12;glass=0;strokeWidth=1;shadow=0;fillColor=#1ba1e2;fontColor=#ffffff;strokeColor=#006EAF;" vertex="1" parent="WIyWlLk6GJQsqaUBKTNV-1">
          <mxGeometry x="837" y="129" width="120" height="40" as="geometry" />
        </mxCell>
        <mxCell id="O5qcWpgSKs4IgxdbwhYX-6" value=";" style="rounded=1;whiteSpace=wrap;html=1;fontSize=12;glass=0;strokeWidth=1;shadow=0;fillColor=#1ba1e2;fontColor=#ffffff;strokeColor=#006EAF;" vertex="1" parent="WIyWlLk6GJQsqaUBKTNV-1">
          <mxGeometry x="693.5" y="51" width="120" height="40" as="geometry" />
        </mxCell>
        <mxCell id="O5qcWpgSKs4IgxdbwhYX-7" value="INTEGER" style="rounded=1;whiteSpace=wrap;html=1;fontSize=12;glass=0;strokeWidth=1;shadow=0;fillColor=#1ba1e2;fontColor=#ffffff;strokeColor=#006EAF;" vertex="1" parent="WIyWlLk6GJQsqaUBKTNV-1">
          <mxGeometry x="1147.5" y="181" width="120" height="40" as="geometry" />
        </mxCell>
        <mxCell id="O5qcWpgSKs4IgxdbwhYX-8" value="PARAM" style="rounded=1;whiteSpace=wrap;html=1;fontSize=12;glass=0;strokeWidth=1;shadow=0;fillColor=#1ba1e2;fontColor=#ffffff;strokeColor=#006EAF;" vertex="1" parent="WIyWlLk6GJQsqaUBKTNV-1">
          <mxGeometry x="1149.5" y="247" width="120" height="40" as="geometry" />
        </mxCell>
        <mxCell id="O5qcWpgSKs4IgxdbwhYX-12" value="" style="edgeStyle=orthogonalEdgeStyle;rounded=0;orthogonalLoop=1;jettySize=auto;html=1;" edge="1" parent="WIyWlLk6GJQsqaUBKTNV-1" source="O5qcWpgSKs4IgxdbwhYX-9" target="O5qcWpgSKs4IgxdbwhYX-11">
          <mxGeometry relative="1" as="geometry" />
        </mxCell>
        <mxCell id="O5qcWpgSKs4IgxdbwhYX-9" value="Statement" style="rounded=1;whiteSpace=wrap;html=1;fontSize=12;glass=0;strokeWidth=1;shadow=0;" vertex="1" parent="WIyWlLk6GJQsqaUBKTNV-1">
          <mxGeometry x="210" y="90" width="120" height="40" as="geometry" />
        </mxCell>
        <mxCell id="0E-LU-rpmm0SCRFe6F6l-74" style="edgeStyle=orthogonalEdgeStyle;rounded=0;orthogonalLoop=1;jettySize=auto;html=1;exitX=0.5;exitY=1;exitDx=0;exitDy=0;entryX=0.5;entryY=0;entryDx=0;entryDy=0;" edge="1" parent="WIyWlLk6GJQsqaUBKTNV-1" source="O5qcWpgSKs4IgxdbwhYX-11" target="O5qcWpgSKs4IgxdbwhYX-464">
          <mxGeometry relative="1" as="geometry" />
        </mxCell>
        <mxCell id="0E-LU-rpmm0SCRFe6F6l-75" style="edgeStyle=orthogonalEdgeStyle;rounded=0;orthogonalLoop=1;jettySize=auto;html=1;exitX=0.5;exitY=0;exitDx=0;exitDy=0;entryX=0.5;entryY=1;entryDx=0;entryDy=0;" edge="1" parent="WIyWlLk6GJQsqaUBKTNV-1" source="O5qcWpgSKs4IgxdbwhYX-11" target="O5qcWpgSKs4IgxdbwhYX-1">
          <mxGeometry relative="1" as="geometry" />
        </mxCell>
        <mxCell id="I1Nj4VJWrZhrebcEaoRm-1" style="edgeStyle=orthogonalEdgeStyle;rounded=0;orthogonalLoop=1;jettySize=auto;html=1;exitX=1;exitY=0.5;exitDx=0;exitDy=0;entryX=0;entryY=0.5;entryDx=0;entryDy=0;" edge="1" parent="WIyWlLk6GJQsqaUBKTNV-1" source="O5qcWpgSKs4IgxdbwhYX-11" target="O5qcWpgSKs4IgxdbwhYX-22">
          <mxGeometry relative="1" as="geometry" />
        </mxCell>
        <mxCell id="I1Nj4VJWrZhrebcEaoRm-2" style="edgeStyle=orthogonalEdgeStyle;rounded=0;orthogonalLoop=1;jettySize=auto;html=1;exitX=1;exitY=0.25;exitDx=0;exitDy=0;entryX=0;entryY=0.5;entryDx=0;entryDy=0;" edge="1" parent="WIyWlLk6GJQsqaUBKTNV-1" source="O5qcWpgSKs4IgxdbwhYX-11" target="O5qcWpgSKs4IgxdbwhYX-6">
          <mxGeometry relative="1" as="geometry" />
        </mxCell>
        <mxCell id="I1Nj4VJWrZhrebcEaoRm-5" style="edgeStyle=orthogonalEdgeStyle;rounded=0;orthogonalLoop=1;jettySize=auto;html=1;exitX=1;exitY=1;exitDx=0;exitDy=0;entryX=0.5;entryY=0;entryDx=0;entryDy=0;" edge="1" parent="WIyWlLk6GJQsqaUBKTNV-1" source="O5qcWpgSKs4IgxdbwhYX-11" target="0E-LU-rpmm0SCRFe6F6l-147">
          <mxGeometry relative="1" as="geometry">
            <Array as="points">
              <mxPoint x="560" y="130" />
              <mxPoint x="560" y="202" />
              <mxPoint x="597" y="202" />
            </Array>
          </mxGeometry>
        </mxCell>
        <mxCell id="H8Ah17rOPp0xhHTF8w0b-0" style="edgeStyle=orthogonalEdgeStyle;rounded=0;orthogonalLoop=1;jettySize=auto;html=1;exitX=1;exitY=0.75;exitDx=0;exitDy=0;entryX=0;entryY=0.5;entryDx=0;entryDy=0;" edge="1" parent="WIyWlLk6GJQsqaUBKTNV-1" source="O5qcWpgSKs4IgxdbwhYX-11" target="O5qcWpgSKs4IgxdbwhYX-32">
          <mxGeometry relative="1" as="geometry" />
        </mxCell>
        <mxCell id="O5qcWpgSKs4IgxdbwhYX-11" value="Fragment" style="rounded=1;whiteSpace=wrap;html=1;fontSize=12;glass=0;strokeWidth=1;shadow=0;" vertex="1" parent="WIyWlLk6GJQsqaUBKTNV-1">
          <mxGeometry x="370" y="90" width="120" height="40" as="geometry" />
        </mxCell>
        <mxCell id="jhcRTHXOrCXN50fCUgo5-0" style="edgeStyle=orthogonalEdgeStyle;rounded=0;orthogonalLoop=1;jettySize=auto;html=1;exitX=1;exitY=0.5;exitDx=0;exitDy=0;entryX=0;entryY=0.5;entryDx=0;entryDy=0;" edge="1" parent="WIyWlLk6GJQsqaUBKTNV-1" source="O5qcWpgSKs4IgxdbwhYX-22" target="O5qcWpgSKs4IgxdbwhYX-26">
          <mxGeometry relative="1" as="geometry" />
        </mxCell>
        <mxCell id="O5qcWpgSKs4IgxdbwhYX-22" value="ModifierList" style="rounded=1;whiteSpace=wrap;html=1;fontSize=12;glass=0;strokeWidth=1;shadow=0;" vertex="1" parent="WIyWlLk6GJQsqaUBKTNV-1">
          <mxGeometry x="695" y="91" width="120" height="40" as="geometry" />
        </mxCell>
        <mxCell id="O5qcWpgSKs4IgxdbwhYX-28" style="edgeStyle=orthogonalEdgeStyle;rounded=0;orthogonalLoop=1;jettySize=auto;html=1;exitX=1;exitY=0.5;exitDx=0;exitDy=0;entryX=0;entryY=0.5;entryDx=0;entryDy=0;" edge="1" parent="WIyWlLk6GJQsqaUBKTNV-1" source="O5qcWpgSKs4IgxdbwhYX-26" target="O5qcWpgSKs4IgxdbwhYX-2">
          <mxGeometry relative="1" as="geometry" />
        </mxCell>
        <mxCell id="O5qcWpgSKs4IgxdbwhYX-26" value="Modifier" style="rounded=1;whiteSpace=wrap;html=1;fontSize=12;glass=0;strokeWidth=1;shadow=0;" vertex="1" parent="WIyWlLk6GJQsqaUBKTNV-1">
          <mxGeometry x="837" y="91" width="120" height="40" as="geometry" />
        </mxCell>
        <mxCell id="O5qcWpgSKs4IgxdbwhYX-34" style="edgeStyle=orthogonalEdgeStyle;rounded=0;orthogonalLoop=1;jettySize=auto;html=1;exitX=1;exitY=0.5;exitDx=0;exitDy=0;entryX=0;entryY=0.5;entryDx=0;entryDy=0;" edge="1" parent="WIyWlLk6GJQsqaUBKTNV-1" source="O5qcWpgSKs4IgxdbwhYX-32" target="O5qcWpgSKs4IgxdbwhYX-5">
          <mxGeometry relative="1" as="geometry" />
        </mxCell>
        <mxCell id="O5qcWpgSKs4IgxdbwhYX-32" value="ID" style="rounded=1;whiteSpace=wrap;html=1;fontSize=12;glass=0;strokeWidth=1;shadow=0;" vertex="1" parent="WIyWlLk6GJQsqaUBKTNV-1">
          <mxGeometry x="695" y="129" width="120" height="40" as="geometry" />
        </mxCell>
        <mxCell id="O5qcWpgSKs4IgxdbwhYX-36" value="&quot;n&quot;" style="rounded=1;whiteSpace=wrap;html=1;fontSize=12;glass=0;strokeWidth=1;shadow=0;fillColor=#1ba1e2;fontColor=#ffffff;strokeColor=#006EAF;" vertex="1" parent="WIyWlLk6GJQsqaUBKTNV-1">
          <mxGeometry x="1288" y="312" width="120" height="40" as="geometry" />
        </mxCell>
        <mxCell id="O5qcWpgSKs4IgxdbwhYX-38" value=";" style="rounded=1;whiteSpace=wrap;html=1;fontSize=12;glass=0;strokeWidth=1;shadow=0;fillColor=#1ba1e2;fontColor=#ffffff;strokeColor=#006EAF;" vertex="1" parent="WIyWlLk6GJQsqaUBKTNV-1">
          <mxGeometry x="695" y="192" width="120" height="40" as="geometry" />
        </mxCell>
        <mxCell id="0E-LU-rpmm0SCRFe6F6l-8" style="edgeStyle=orthogonalEdgeStyle;rounded=0;orthogonalLoop=1;jettySize=auto;html=1;exitX=1;exitY=0.5;exitDx=0;exitDy=0;entryX=0;entryY=0.5;entryDx=0;entryDy=0;" edge="1" parent="WIyWlLk6GJQsqaUBKTNV-1" source="O5qcWpgSKs4IgxdbwhYX-39" target="O5qcWpgSKs4IgxdbwhYX-42">
          <mxGeometry relative="1" as="geometry" />
        </mxCell>
        <mxCell id="0E-LU-rpmm0SCRFe6F6l-14" style="edgeStyle=orthogonalEdgeStyle;rounded=0;orthogonalLoop=1;jettySize=auto;html=1;exitX=0.5;exitY=0;exitDx=0;exitDy=0;entryX=0.5;entryY=1;entryDx=0;entryDy=0;" edge="1" parent="WIyWlLk6GJQsqaUBKTNV-1" source="O5qcWpgSKs4IgxdbwhYX-39" target="O5qcWpgSKs4IgxdbwhYX-38">
          <mxGeometry relative="1" as="geometry" />
        </mxCell>
        <mxCell id="O5qcWpgSKs4IgxdbwhYX-39" value="Statement" style="rounded=1;whiteSpace=wrap;html=1;fontSize=12;glass=0;strokeWidth=1;shadow=0;" vertex="1" parent="WIyWlLk6GJQsqaUBKTNV-1">
          <mxGeometry x="695" y="260" width="117" height="40" as="geometry" />
        </mxCell>
        <mxCell id="O5qcWpgSKs4IgxdbwhYX-45" value="" style="edgeStyle=orthogonalEdgeStyle;rounded=0;orthogonalLoop=1;jettySize=auto;html=1;" edge="1" parent="WIyWlLk6GJQsqaUBKTNV-1" source="O5qcWpgSKs4IgxdbwhYX-42" target="O5qcWpgSKs4IgxdbwhYX-44">
          <mxGeometry relative="1" as="geometry" />
        </mxCell>
        <mxCell id="0E-LU-rpmm0SCRFe6F6l-12" style="edgeStyle=orthogonalEdgeStyle;rounded=0;orthogonalLoop=1;jettySize=auto;html=1;exitX=0.5;exitY=0;exitDx=0;exitDy=0;entryX=0.5;entryY=1;entryDx=0;entryDy=0;" edge="1" parent="WIyWlLk6GJQsqaUBKTNV-1" source="O5qcWpgSKs4IgxdbwhYX-42" target="O5qcWpgSKs4IgxdbwhYX-49">
          <mxGeometry relative="1" as="geometry" />
        </mxCell>
        <mxCell id="O5qcWpgSKs4IgxdbwhYX-42" value="NameDecl" style="rounded=1;whiteSpace=wrap;html=1;fontSize=12;glass=0;strokeWidth=1;shadow=0;" vertex="1" parent="WIyWlLk6GJQsqaUBKTNV-1">
          <mxGeometry x="858.5" y="312" width="120" height="40" as="geometry" />
        </mxCell>
        <mxCell id="0E-LU-rpmm0SCRFe6F6l-9" style="edgeStyle=orthogonalEdgeStyle;rounded=0;orthogonalLoop=1;jettySize=auto;html=1;exitX=1;exitY=0.5;exitDx=0;exitDy=0;entryX=0;entryY=0.5;entryDx=0;entryDy=0;" edge="1" parent="WIyWlLk6GJQsqaUBKTNV-1" source="O5qcWpgSKs4IgxdbwhYX-44" target="O5qcWpgSKs4IgxdbwhYX-55">
          <mxGeometry relative="1" as="geometry" />
        </mxCell>
        <mxCell id="O5qcWpgSKs4IgxdbwhYX-44" value="Id_List" style="rounded=1;whiteSpace=wrap;html=1;fontSize=12;glass=0;strokeWidth=1;shadow=0;" vertex="1" parent="WIyWlLk6GJQsqaUBKTNV-1">
          <mxGeometry x="1002.5" y="312" width="120" height="40" as="geometry" />
        </mxCell>
        <mxCell id="O5qcWpgSKs4IgxdbwhYX-62" style="edgeStyle=orthogonalEdgeStyle;rounded=0;orthogonalLoop=1;jettySize=auto;html=1;exitX=1;exitY=0.5;exitDx=0;exitDy=0;entryX=0;entryY=0.5;entryDx=0;entryDy=0;" edge="1" parent="WIyWlLk6GJQsqaUBKTNV-1" source="O5qcWpgSKs4IgxdbwhYX-49" target="O5qcWpgSKs4IgxdbwhYX-51">
          <mxGeometry relative="1" as="geometry" />
        </mxCell>
        <mxCell id="0E-LU-rpmm0SCRFe6F6l-13" style="edgeStyle=orthogonalEdgeStyle;rounded=0;orthogonalLoop=1;jettySize=auto;html=1;exitX=0.5;exitY=0;exitDx=0;exitDy=0;" edge="1" parent="WIyWlLk6GJQsqaUBKTNV-1" source="O5qcWpgSKs4IgxdbwhYX-49" target="O5qcWpgSKs4IgxdbwhYX-53">
          <mxGeometry relative="1" as="geometry" />
        </mxCell>
        <mxCell id="O5qcWpgSKs4IgxdbwhYX-49" value="ModifierList" style="rounded=1;whiteSpace=wrap;html=1;fontSize=12;glass=0;strokeWidth=1;shadow=0;" vertex="1" parent="WIyWlLk6GJQsqaUBKTNV-1">
          <mxGeometry x="858.5" y="247" width="120" height="40" as="geometry" />
        </mxCell>
        <mxCell id="0E-LU-rpmm0SCRFe6F6l-11" style="edgeStyle=orthogonalEdgeStyle;rounded=0;orthogonalLoop=1;jettySize=auto;html=1;exitX=1;exitY=0.5;exitDx=0;exitDy=0;entryX=0;entryY=0.5;entryDx=0;entryDy=0;" edge="1" parent="WIyWlLk6GJQsqaUBKTNV-1" source="O5qcWpgSKs4IgxdbwhYX-51" target="O5qcWpgSKs4IgxdbwhYX-8">
          <mxGeometry relative="1" as="geometry" />
        </mxCell>
        <mxCell id="O5qcWpgSKs4IgxdbwhYX-51" value="Modifier" style="rounded=1;whiteSpace=wrap;html=1;fontSize=12;glass=0;strokeWidth=1;shadow=0;" vertex="1" parent="WIyWlLk6GJQsqaUBKTNV-1">
          <mxGeometry x="1002.5" y="247" width="120" height="40" as="geometry" />
        </mxCell>
        <mxCell id="O5qcWpgSKs4IgxdbwhYX-60" value="" style="edgeStyle=orthogonalEdgeStyle;rounded=0;orthogonalLoop=1;jettySize=auto;html=1;" edge="1" parent="WIyWlLk6GJQsqaUBKTNV-1" source="O5qcWpgSKs4IgxdbwhYX-53" target="O5qcWpgSKs4IgxdbwhYX-59">
          <mxGeometry relative="1" as="geometry" />
        </mxCell>
        <mxCell id="O5qcWpgSKs4IgxdbwhYX-53" value="ModifierList" style="rounded=1;whiteSpace=wrap;html=1;fontSize=12;glass=0;strokeWidth=1;shadow=0;" vertex="1" parent="WIyWlLk6GJQsqaUBKTNV-1">
          <mxGeometry x="858.5" y="181" width="120" height="40" as="geometry" />
        </mxCell>
        <mxCell id="0E-LU-rpmm0SCRFe6F6l-25" style="edgeStyle=orthogonalEdgeStyle;rounded=0;orthogonalLoop=1;jettySize=auto;html=1;exitX=1;exitY=0.5;exitDx=0;exitDy=0;entryX=0;entryY=0.5;entryDx=0;entryDy=0;" edge="1" parent="WIyWlLk6GJQsqaUBKTNV-1" source="O5qcWpgSKs4IgxdbwhYX-55" target="O5qcWpgSKs4IgxdbwhYX-36">
          <mxGeometry relative="1" as="geometry" />
        </mxCell>
        <mxCell id="O5qcWpgSKs4IgxdbwhYX-55" value="ID" style="rounded=1;whiteSpace=wrap;html=1;fontSize=12;glass=0;strokeWidth=1;shadow=0;" vertex="1" parent="WIyWlLk6GJQsqaUBKTNV-1">
          <mxGeometry x="1147.5" y="312" width="120" height="40" as="geometry" />
        </mxCell>
        <mxCell id="O5qcWpgSKs4IgxdbwhYX-61" style="edgeStyle=orthogonalEdgeStyle;rounded=0;orthogonalLoop=1;jettySize=auto;html=1;exitX=1;exitY=0.5;exitDx=0;exitDy=0;entryX=0;entryY=0.5;entryDx=0;entryDy=0;" edge="1" parent="WIyWlLk6GJQsqaUBKTNV-1" source="O5qcWpgSKs4IgxdbwhYX-59" target="O5qcWpgSKs4IgxdbwhYX-7">
          <mxGeometry relative="1" as="geometry" />
        </mxCell>
        <mxCell id="O5qcWpgSKs4IgxdbwhYX-59" value="Modifier" style="rounded=1;whiteSpace=wrap;html=1;fontSize=12;glass=0;strokeWidth=1;shadow=0;" vertex="1" parent="WIyWlLk6GJQsqaUBKTNV-1">
          <mxGeometry x="1002.5" y="181" width="120" height="40" as="geometry" />
        </mxCell>
        <mxCell id="O5qcWpgSKs4IgxdbwhYX-64" value="&quot;IF&quot;" style="rounded=1;whiteSpace=wrap;html=1;fontSize=12;glass=0;strokeWidth=1;shadow=0;fillColor=#1ba1e2;fontColor=#ffffff;strokeColor=#006EAF;" vertex="1" parent="WIyWlLk6GJQsqaUBKTNV-1">
          <mxGeometry x="842.5" y="446" width="120" height="40" as="geometry" />
        </mxCell>
        <mxCell id="O5qcWpgSKs4IgxdbwhYX-65" value="&quot;(&quot;" style="rounded=1;whiteSpace=wrap;html=1;fontSize=12;glass=0;strokeWidth=1;shadow=0;fillColor=#1ba1e2;fontColor=#ffffff;strokeColor=#006EAF;" vertex="1" parent="WIyWlLk6GJQsqaUBKTNV-1">
          <mxGeometry x="842.5" y="491" width="120" height="40" as="geometry" />
        </mxCell>
        <mxCell id="O5qcWpgSKs4IgxdbwhYX-69" value="&quot;;&quot;" style="rounded=1;whiteSpace=wrap;html=1;fontSize=12;glass=0;strokeWidth=1;shadow=0;fillColor=#1ba1e2;fontColor=#ffffff;strokeColor=#006EAF;" vertex="1" parent="WIyWlLk6GJQsqaUBKTNV-1">
          <mxGeometry x="1318.5" y="749" width="120" height="40" as="geometry" />
        </mxCell>
        <mxCell id="O5qcWpgSKs4IgxdbwhYX-70" value="&quot;&amp;amp;&amp;amp;&quot;" style="rounded=1;whiteSpace=wrap;html=1;fontSize=12;glass=0;strokeWidth=1;shadow=0;fillColor=#1ba1e2;fontColor=#ffffff;strokeColor=#006EAF;" vertex="1" parent="WIyWlLk6GJQsqaUBKTNV-1">
          <mxGeometry x="1318.5" y="464" width="120" height="40" as="geometry" />
        </mxCell>
        <mxCell id="O5qcWpgSKs4IgxdbwhYX-74" value="&quot;)&quot;" style="rounded=1;whiteSpace=wrap;html=1;fontSize=12;glass=0;strokeWidth=1;shadow=0;fillColor=#1ba1e2;fontColor=#ffffff;strokeColor=#006EAF;" vertex="1" parent="WIyWlLk6GJQsqaUBKTNV-1">
          <mxGeometry x="842.5" y="602" width="120" height="40" as="geometry" />
        </mxCell>
        <mxCell id="0E-LU-rpmm0SCRFe6F6l-56" style="edgeStyle=orthogonalEdgeStyle;rounded=0;orthogonalLoop=1;jettySize=auto;html=1;exitX=0.5;exitY=1;exitDx=0;exitDy=0;" edge="1" parent="WIyWlLk6GJQsqaUBKTNV-1" source="O5qcWpgSKs4IgxdbwhYX-75">
          <mxGeometry relative="1" as="geometry">
            <mxPoint x="1067.537037037037" y="787" as="targetPoint" />
          </mxGeometry>
        </mxCell>
        <mxCell id="O5qcWpgSKs4IgxdbwhYX-75" value="&quot;FRAGMENT&quot;" style="rounded=1;whiteSpace=wrap;html=1;fontSize=12;glass=0;strokeWidth=1;shadow=0;fillColor=#1ba1e2;fontColor=#ffffff;strokeColor=#006EAF;" vertex="1" parent="WIyWlLk6GJQsqaUBKTNV-1">
          <mxGeometry x="990" y="766" width="120" height="40" as="geometry" />
        </mxCell>
        <mxCell id="0E-LU-rpmm0SCRFe6F6l-17" style="edgeStyle=orthogonalEdgeStyle;rounded=0;orthogonalLoop=1;jettySize=auto;html=1;exitX=0.5;exitY=0;exitDx=0;exitDy=0;entryX=0;entryY=0.5;entryDx=0;entryDy=0;" edge="1" parent="WIyWlLk6GJQsqaUBKTNV-1" source="O5qcWpgSKs4IgxdbwhYX-76" target="O5qcWpgSKs4IgxdbwhYX-64">
          <mxGeometry relative="1" as="geometry" />
        </mxCell>
        <mxCell id="0E-LU-rpmm0SCRFe6F6l-41" style="edgeStyle=orthogonalEdgeStyle;rounded=0;orthogonalLoop=1;jettySize=auto;html=1;exitX=1;exitY=0.5;exitDx=0;exitDy=0;entryX=-0.023;entryY=0.513;entryDx=0;entryDy=0;entryPerimeter=0;" edge="1" parent="WIyWlLk6GJQsqaUBKTNV-1" source="O5qcWpgSKs4IgxdbwhYX-76" target="O5qcWpgSKs4IgxdbwhYX-87">
          <mxGeometry relative="1" as="geometry" />
        </mxCell>
        <mxCell id="0E-LU-rpmm0SCRFe6F6l-42" style="edgeStyle=orthogonalEdgeStyle;rounded=0;orthogonalLoop=1;jettySize=auto;html=1;exitX=1;exitY=1;exitDx=0;exitDy=0;entryX=0;entryY=0.5;entryDx=0;entryDy=0;" edge="1" parent="WIyWlLk6GJQsqaUBKTNV-1" source="O5qcWpgSKs4IgxdbwhYX-76" target="O5qcWpgSKs4IgxdbwhYX-74">
          <mxGeometry relative="1" as="geometry" />
        </mxCell>
        <mxCell id="0E-LU-rpmm0SCRFe6F6l-43" style="edgeStyle=orthogonalEdgeStyle;rounded=0;orthogonalLoop=1;jettySize=auto;html=1;exitX=1;exitY=0;exitDx=0;exitDy=0;entryX=0;entryY=0.5;entryDx=0;entryDy=0;" edge="1" parent="WIyWlLk6GJQsqaUBKTNV-1" source="O5qcWpgSKs4IgxdbwhYX-76" target="O5qcWpgSKs4IgxdbwhYX-65">
          <mxGeometry relative="1" as="geometry" />
        </mxCell>
        <mxCell id="0E-LU-rpmm0SCRFe6F6l-44" style="edgeStyle=orthogonalEdgeStyle;rounded=0;orthogonalLoop=1;jettySize=auto;html=1;exitX=0.75;exitY=1;exitDx=0;exitDy=0;entryX=0;entryY=0.5;entryDx=0;entryDy=0;" edge="1" parent="WIyWlLk6GJQsqaUBKTNV-1" source="O5qcWpgSKs4IgxdbwhYX-76" target="O5qcWpgSKs4IgxdbwhYX-309">
          <mxGeometry relative="1" as="geometry" />
        </mxCell>
        <mxCell id="Zxj47xlA75A2O7vvZq-7-2" value="" style="edgeStyle=orthogonalEdgeStyle;rounded=0;orthogonalLoop=1;jettySize=auto;html=1;" edge="1" parent="WIyWlLk6GJQsqaUBKTNV-1" source="O5qcWpgSKs4IgxdbwhYX-76" target="Zxj47xlA75A2O7vvZq-7-1">
          <mxGeometry relative="1" as="geometry" />
        </mxCell>
        <mxCell id="O5qcWpgSKs4IgxdbwhYX-76" value="Statement" style="rounded=1;whiteSpace=wrap;html=1;fontSize=12;glass=0;strokeWidth=1;shadow=0;" vertex="1" parent="WIyWlLk6GJQsqaUBKTNV-1">
          <mxGeometry x="695" y="544" width="120" height="40" as="geometry" />
        </mxCell>
        <mxCell id="O5qcWpgSKs4IgxdbwhYX-92" style="edgeStyle=orthogonalEdgeStyle;rounded=0;orthogonalLoop=1;jettySize=auto;html=1;exitX=1;exitY=0.5;exitDx=0;exitDy=0;" edge="1" parent="WIyWlLk6GJQsqaUBKTNV-1" source="O5qcWpgSKs4IgxdbwhYX-87" target="O5qcWpgSKs4IgxdbwhYX-91">
          <mxGeometry relative="1" as="geometry" />
        </mxCell>
        <mxCell id="0E-LU-rpmm0SCRFe6F6l-29" style="edgeStyle=orthogonalEdgeStyle;rounded=0;orthogonalLoop=1;jettySize=auto;html=1;exitX=1;exitY=0.75;exitDx=0;exitDy=0;entryX=0;entryY=0.5;entryDx=0;entryDy=0;" edge="1" parent="WIyWlLk6GJQsqaUBKTNV-1" source="O5qcWpgSKs4IgxdbwhYX-87" target="O5qcWpgSKs4IgxdbwhYX-93">
          <mxGeometry relative="1" as="geometry" />
        </mxCell>
        <mxCell id="0E-LU-rpmm0SCRFe6F6l-30" style="edgeStyle=orthogonalEdgeStyle;rounded=0;orthogonalLoop=1;jettySize=auto;html=1;exitX=1;exitY=0.25;exitDx=0;exitDy=0;entryX=0;entryY=0.5;entryDx=0;entryDy=0;" edge="1" parent="WIyWlLk6GJQsqaUBKTNV-1" source="O5qcWpgSKs4IgxdbwhYX-87" target="O5qcWpgSKs4IgxdbwhYX-89">
          <mxGeometry relative="1" as="geometry" />
        </mxCell>
        <mxCell id="O5qcWpgSKs4IgxdbwhYX-87" value="Expression" style="rounded=1;whiteSpace=wrap;html=1;fontSize=12;glass=0;strokeWidth=1;shadow=0;" vertex="1" parent="WIyWlLk6GJQsqaUBKTNV-1">
          <mxGeometry x="842.5" y="544" width="120" height="40" as="geometry" />
        </mxCell>
        <mxCell id="hoxSKYSqC14O6qdJ_4Br-42" style="edgeStyle=orthogonalEdgeStyle;rounded=0;orthogonalLoop=1;jettySize=auto;html=1;exitX=1;exitY=0.5;exitDx=0;exitDy=0;entryX=0;entryY=0.5;entryDx=0;entryDy=0;" edge="1" parent="WIyWlLk6GJQsqaUBKTNV-1" source="O5qcWpgSKs4IgxdbwhYX-89" target="hoxSKYSqC14O6qdJ_4Br-3">
          <mxGeometry relative="1" as="geometry" />
        </mxCell>
        <mxCell id="hoxSKYSqC14O6qdJ_4Br-43" style="edgeStyle=orthogonalEdgeStyle;rounded=0;orthogonalLoop=1;jettySize=auto;html=1;exitX=1;exitY=0.25;exitDx=0;exitDy=0;entryX=0;entryY=0.5;entryDx=0;entryDy=0;" edge="1" parent="WIyWlLk6GJQsqaUBKTNV-1" source="O5qcWpgSKs4IgxdbwhYX-89" target="hoxSKYSqC14O6qdJ_4Br-2">
          <mxGeometry relative="1" as="geometry" />
        </mxCell>
        <mxCell id="hoxSKYSqC14O6qdJ_4Br-44" style="edgeStyle=orthogonalEdgeStyle;rounded=0;orthogonalLoop=1;jettySize=auto;html=1;exitX=1;exitY=0;exitDx=0;exitDy=0;entryX=0;entryY=0.5;entryDx=0;entryDy=0;" edge="1" parent="WIyWlLk6GJQsqaUBKTNV-1" source="O5qcWpgSKs4IgxdbwhYX-89" target="hoxSKYSqC14O6qdJ_4Br-1">
          <mxGeometry relative="1" as="geometry" />
        </mxCell>
        <mxCell id="O5qcWpgSKs4IgxdbwhYX-89" value="Expression" style="rounded=1;whiteSpace=wrap;html=1;fontSize=12;glass=0;strokeWidth=1;shadow=0;" vertex="1" parent="WIyWlLk6GJQsqaUBKTNV-1">
          <mxGeometry x="1000.5" y="503" width="120" height="40" as="geometry" />
        </mxCell>
        <mxCell id="MsqvOlsJMTI6k4EGRhwS-0" style="edgeStyle=orthogonalEdgeStyle;rounded=0;orthogonalLoop=1;jettySize=auto;html=1;exitX=1;exitY=0.5;exitDx=0;exitDy=0;entryX=0;entryY=0.5;entryDx=0;entryDy=0;" edge="1" parent="WIyWlLk6GJQsqaUBKTNV-1" source="O5qcWpgSKs4IgxdbwhYX-91" target="hoxSKYSqC14O6qdJ_4Br-30">
          <mxGeometry relative="1" as="geometry" />
        </mxCell>
        <mxCell id="O5qcWpgSKs4IgxdbwhYX-91" value="BinOp" style="rounded=1;whiteSpace=wrap;html=1;fontSize=12;glass=0;strokeWidth=1;shadow=0;" vertex="1" parent="WIyWlLk6GJQsqaUBKTNV-1">
          <mxGeometry x="1000.5" y="543" width="120" height="40" as="geometry" />
        </mxCell>
        <mxCell id="MsqvOlsJMTI6k4EGRhwS-1" style="edgeStyle=orthogonalEdgeStyle;rounded=0;orthogonalLoop=1;jettySize=auto;html=1;exitX=1;exitY=0.5;exitDx=0;exitDy=0;entryX=0;entryY=0.5;entryDx=0;entryDy=0;" edge="1" parent="WIyWlLk6GJQsqaUBKTNV-1" source="O5qcWpgSKs4IgxdbwhYX-93" target="hoxSKYSqC14O6qdJ_4Br-33">
          <mxGeometry relative="1" as="geometry" />
        </mxCell>
        <mxCell id="O5qcWpgSKs4IgxdbwhYX-93" value="Expression" style="rounded=1;whiteSpace=wrap;html=1;fontSize=12;glass=0;strokeWidth=1;shadow=0;" vertex="1" parent="WIyWlLk6GJQsqaUBKTNV-1">
          <mxGeometry x="1000.5" y="583" width="120" height="40" as="geometry" />
        </mxCell>
        <mxCell id="0E-LU-rpmm0SCRFe6F6l-53" style="edgeStyle=orthogonalEdgeStyle;rounded=0;orthogonalLoop=1;jettySize=auto;html=1;exitX=1;exitY=0.5;exitDx=0;exitDy=0;entryX=0;entryY=0.5;entryDx=0;entryDy=0;" edge="1" parent="WIyWlLk6GJQsqaUBKTNV-1" source="O5qcWpgSKs4IgxdbwhYX-183" target="O5qcWpgSKs4IgxdbwhYX-185">
          <mxGeometry relative="1" as="geometry" />
        </mxCell>
        <mxCell id="O5qcWpgSKs4IgxdbwhYX-183" value="Statement" style="rounded=1;whiteSpace=wrap;html=1;fontSize=12;glass=0;strokeWidth=1;shadow=0;" vertex="1" parent="WIyWlLk6GJQsqaUBKTNV-1">
          <mxGeometry x="842.5" y="823" width="120" height="40" as="geometry" />
        </mxCell>
        <mxCell id="0E-LU-rpmm0SCRFe6F6l-51" style="edgeStyle=orthogonalEdgeStyle;rounded=0;orthogonalLoop=1;jettySize=auto;html=1;exitX=1;exitY=0.5;exitDx=0;exitDy=0;entryX=0;entryY=0.5;entryDx=0;entryDy=0;" edge="1" parent="WIyWlLk6GJQsqaUBKTNV-1" source="O5qcWpgSKs4IgxdbwhYX-185" target="O5qcWpgSKs4IgxdbwhYX-194">
          <mxGeometry relative="1" as="geometry" />
        </mxCell>
        <mxCell id="0E-LU-rpmm0SCRFe6F6l-54" style="edgeStyle=orthogonalEdgeStyle;rounded=0;orthogonalLoop=1;jettySize=auto;html=1;exitX=0.5;exitY=1;exitDx=0;exitDy=0;entryX=0.5;entryY=0;entryDx=0;entryDy=0;" edge="1" parent="WIyWlLk6GJQsqaUBKTNV-1" source="O5qcWpgSKs4IgxdbwhYX-185" target="O5qcWpgSKs4IgxdbwhYX-307">
          <mxGeometry relative="1" as="geometry" />
        </mxCell>
        <mxCell id="0E-LU-rpmm0SCRFe6F6l-57" style="edgeStyle=orthogonalEdgeStyle;rounded=0;orthogonalLoop=1;jettySize=auto;html=1;exitX=0.5;exitY=0;exitDx=0;exitDy=0;entryX=0.5;entryY=1;entryDx=0;entryDy=0;" edge="1" parent="WIyWlLk6GJQsqaUBKTNV-1" source="O5qcWpgSKs4IgxdbwhYX-185" target="O5qcWpgSKs4IgxdbwhYX-75">
          <mxGeometry relative="1" as="geometry" />
        </mxCell>
        <mxCell id="O5qcWpgSKs4IgxdbwhYX-185" value="Fragment" style="rounded=1;whiteSpace=wrap;html=1;fontSize=12;glass=0;strokeWidth=1;shadow=0;" vertex="1" parent="WIyWlLk6GJQsqaUBKTNV-1">
          <mxGeometry x="990" y="823" width="120" height="40" as="geometry" />
        </mxCell>
        <mxCell id="O5qcWpgSKs4IgxdbwhYX-209" value="" style="edgeStyle=orthogonalEdgeStyle;rounded=0;orthogonalLoop=1;jettySize=auto;html=1;" edge="1" parent="WIyWlLk6GJQsqaUBKTNV-1" source="O5qcWpgSKs4IgxdbwhYX-194" target="O5qcWpgSKs4IgxdbwhYX-208">
          <mxGeometry relative="1" as="geometry" />
        </mxCell>
        <mxCell id="0E-LU-rpmm0SCRFe6F6l-52" style="edgeStyle=orthogonalEdgeStyle;rounded=0;orthogonalLoop=1;jettySize=auto;html=1;exitX=0.5;exitY=1;exitDx=0;exitDy=0;entryX=0.5;entryY=0;entryDx=0;entryDy=0;" edge="1" parent="WIyWlLk6GJQsqaUBKTNV-1" source="O5qcWpgSKs4IgxdbwhYX-194" target="O5qcWpgSKs4IgxdbwhYX-298">
          <mxGeometry relative="1" as="geometry" />
        </mxCell>
        <mxCell id="O5qcWpgSKs4IgxdbwhYX-194" value="StatementList" style="rounded=1;whiteSpace=wrap;html=1;fontSize=12;glass=0;strokeWidth=1;shadow=0;" vertex="1" parent="WIyWlLk6GJQsqaUBKTNV-1">
          <mxGeometry x="1159.5" y="823" width="120" height="40" as="geometry" />
        </mxCell>
        <mxCell id="O5qcWpgSKs4IgxdbwhYX-197" value="&quot;Fatorial&quot;" style="rounded=1;whiteSpace=wrap;html=1;fontSize=12;glass=0;strokeWidth=1;shadow=0;fillColor=#1ba1e2;fontColor=#ffffff;strokeColor=#006EAF;" vertex="1" parent="WIyWlLk6GJQsqaUBKTNV-1">
          <mxGeometry x="1766.5" y="766" width="120" height="40" as="geometry" />
        </mxCell>
        <mxCell id="O5qcWpgSKs4IgxdbwhYX-198" value="&quot;=&quot;" style="rounded=1;whiteSpace=wrap;html=1;fontSize=12;glass=0;strokeWidth=1;shadow=0;fillColor=#1ba1e2;fontColor=#ffffff;strokeColor=#006EAF;" vertex="1" parent="WIyWlLk6GJQsqaUBKTNV-1">
          <mxGeometry x="1473" y="823" width="120" height="40" as="geometry" />
        </mxCell>
        <mxCell id="O5qcWpgSKs4IgxdbwhYX-199" value="&quot;n&quot;" style="rounded=1;whiteSpace=wrap;html=1;fontSize=12;glass=0;strokeWidth=1;shadow=0;fillColor=#1ba1e2;fontColor=#ffffff;strokeColor=#006EAF;" vertex="1" parent="WIyWlLk6GJQsqaUBKTNV-1">
          <mxGeometry x="2207" y="838" width="120" height="40" as="geometry" />
        </mxCell>
        <mxCell id="O5qcWpgSKs4IgxdbwhYX-200" value="*" style="rounded=1;whiteSpace=wrap;html=1;fontSize=12;glass=0;strokeWidth=1;shadow=0;fillColor=#1ba1e2;fontColor=#ffffff;strokeColor=#006EAF;" vertex="1" parent="WIyWlLk6GJQsqaUBKTNV-1">
          <mxGeometry x="1787" y="878" width="120" height="40" as="geometry" />
        </mxCell>
        <mxCell id="O5qcWpgSKs4IgxdbwhYX-201" value="&quot;Fatorial&quot;" style="rounded=1;whiteSpace=wrap;html=1;fontSize=12;glass=0;strokeWidth=1;shadow=0;fillColor=#1ba1e2;fontColor=#ffffff;strokeColor=#006EAF;" vertex="1" parent="WIyWlLk6GJQsqaUBKTNV-1">
          <mxGeometry x="2207" y="919" width="120" height="40" as="geometry" />
        </mxCell>
        <mxCell id="O5qcWpgSKs4IgxdbwhYX-202" value="&quot;(&quot;" style="rounded=1;whiteSpace=wrap;html=1;fontSize=12;glass=0;strokeWidth=1;shadow=0;fillColor=#1ba1e2;fontColor=#ffffff;strokeColor=#006EAF;" vertex="1" parent="WIyWlLk6GJQsqaUBKTNV-1">
          <mxGeometry x="2067" y="979" width="120" height="40" as="geometry" />
        </mxCell>
        <mxCell id="O5qcWpgSKs4IgxdbwhYX-203" value="&quot;n&quot;" style="rounded=1;whiteSpace=wrap;html=1;fontSize=12;glass=0;strokeWidth=1;shadow=0;fillColor=#1ba1e2;fontColor=#ffffff;strokeColor=#006EAF;" vertex="1" parent="WIyWlLk6GJQsqaUBKTNV-1">
          <mxGeometry x="2927" y="979" width="120" height="40" as="geometry" />
        </mxCell>
        <mxCell id="O5qcWpgSKs4IgxdbwhYX-204" value="&quot;-&quot;" style="rounded=1;whiteSpace=wrap;html=1;fontSize=12;glass=0;strokeWidth=1;shadow=0;fillColor=#1ba1e2;fontColor=#ffffff;strokeColor=#006EAF;" vertex="1" parent="WIyWlLk6GJQsqaUBKTNV-1">
          <mxGeometry x="2500" y="1019" width="120" height="40" as="geometry" />
        </mxCell>
        <mxCell id="O5qcWpgSKs4IgxdbwhYX-205" value="&quot;1&quot;" style="rounded=1;whiteSpace=wrap;html=1;fontSize=12;glass=0;strokeWidth=1;shadow=0;fillColor=#1ba1e2;fontColor=#ffffff;strokeColor=#006EAF;" vertex="1" parent="WIyWlLk6GJQsqaUBKTNV-1">
          <mxGeometry x="2787" y="1059" width="120" height="40" as="geometry" />
        </mxCell>
        <mxCell id="O5qcWpgSKs4IgxdbwhYX-206" value="&quot;)&quot;" style="rounded=1;whiteSpace=wrap;html=1;fontSize=12;glass=0;strokeWidth=1;shadow=0;fillColor=#1ba1e2;fontColor=#ffffff;strokeColor=#006EAF;" vertex="1" parent="WIyWlLk6GJQsqaUBKTNV-1">
          <mxGeometry x="2067" y="1059" width="120" height="40" as="geometry" />
        </mxCell>
        <mxCell id="O5qcWpgSKs4IgxdbwhYX-207" value="&quot;BREAK&quot;" style="rounded=1;whiteSpace=wrap;html=1;fontSize=12;glass=0;strokeWidth=1;shadow=0;fillColor=#1ba1e2;fontColor=#ffffff;strokeColor=#006EAF;" vertex="1" parent="WIyWlLk6GJQsqaUBKTNV-1">
          <mxGeometry x="1428" y="1001" width="120" height="40" as="geometry" />
        </mxCell>
        <mxCell id="O5qcWpgSKs4IgxdbwhYX-227" style="edgeStyle=orthogonalEdgeStyle;rounded=0;orthogonalLoop=1;jettySize=auto;html=1;exitX=1;exitY=0.75;exitDx=0;exitDy=0;entryX=0;entryY=0.5;entryDx=0;entryDy=0;" edge="1" parent="WIyWlLk6GJQsqaUBKTNV-1" source="O5qcWpgSKs4IgxdbwhYX-208" target="O5qcWpgSKs4IgxdbwhYX-225">
          <mxGeometry relative="1" as="geometry" />
        </mxCell>
        <mxCell id="0E-LU-rpmm0SCRFe6F6l-59" style="edgeStyle=orthogonalEdgeStyle;rounded=0;orthogonalLoop=1;jettySize=auto;html=1;exitX=0.5;exitY=0;exitDx=0;exitDy=0;entryX=0.5;entryY=1;entryDx=0;entryDy=0;" edge="1" parent="WIyWlLk6GJQsqaUBKTNV-1" source="O5qcWpgSKs4IgxdbwhYX-208" target="O5qcWpgSKs4IgxdbwhYX-69">
          <mxGeometry relative="1" as="geometry" />
        </mxCell>
        <mxCell id="0E-LU-rpmm0SCRFe6F6l-61" style="edgeStyle=orthogonalEdgeStyle;rounded=0;orthogonalLoop=1;jettySize=auto;html=1;exitX=1;exitY=0.5;exitDx=0;exitDy=0;entryX=0;entryY=0.5;entryDx=0;entryDy=0;" edge="1" parent="WIyWlLk6GJQsqaUBKTNV-1" source="O5qcWpgSKs4IgxdbwhYX-208" target="O5qcWpgSKs4IgxdbwhYX-198">
          <mxGeometry relative="1" as="geometry" />
        </mxCell>
        <mxCell id="0E-LU-rpmm0SCRFe6F6l-62" style="edgeStyle=orthogonalEdgeStyle;rounded=0;orthogonalLoop=1;jettySize=auto;html=1;exitX=1;exitY=0.25;exitDx=0;exitDy=0;entryX=0;entryY=0.5;entryDx=0;entryDy=0;" edge="1" parent="WIyWlLk6GJQsqaUBKTNV-1" source="O5qcWpgSKs4IgxdbwhYX-208" target="O5qcWpgSKs4IgxdbwhYX-212">
          <mxGeometry relative="1" as="geometry" />
        </mxCell>
        <mxCell id="O5qcWpgSKs4IgxdbwhYX-208" value="Statement" style="rounded=1;whiteSpace=wrap;html=1;fontSize=12;glass=0;strokeWidth=1;shadow=0;" vertex="1" parent="WIyWlLk6GJQsqaUBKTNV-1">
          <mxGeometry x="1318.5" y="823" width="120" height="40" as="geometry" />
        </mxCell>
        <mxCell id="O5qcWpgSKs4IgxdbwhYX-221" value="" style="edgeStyle=orthogonalEdgeStyle;rounded=0;orthogonalLoop=1;jettySize=auto;html=1;" edge="1" parent="WIyWlLk6GJQsqaUBKTNV-1" source="O5qcWpgSKs4IgxdbwhYX-212" target="O5qcWpgSKs4IgxdbwhYX-220">
          <mxGeometry relative="1" as="geometry" />
        </mxCell>
        <mxCell id="O5qcWpgSKs4IgxdbwhYX-212" value="Destiny" style="rounded=1;whiteSpace=wrap;html=1;fontSize=12;glass=0;strokeWidth=1;shadow=0;" vertex="1" parent="WIyWlLk6GJQsqaUBKTNV-1">
          <mxGeometry x="1484.5" y="766" width="120" height="40" as="geometry" />
        </mxCell>
        <mxCell id="O5qcWpgSKs4IgxdbwhYX-222" style="edgeStyle=orthogonalEdgeStyle;rounded=0;orthogonalLoop=1;jettySize=auto;html=1;exitX=1;exitY=0.5;exitDx=0;exitDy=0;entryX=0;entryY=0.5;entryDx=0;entryDy=0;" edge="1" parent="WIyWlLk6GJQsqaUBKTNV-1" source="O5qcWpgSKs4IgxdbwhYX-220" target="O5qcWpgSKs4IgxdbwhYX-197">
          <mxGeometry relative="1" as="geometry" />
        </mxCell>
        <mxCell id="O5qcWpgSKs4IgxdbwhYX-220" value="ID" style="rounded=1;whiteSpace=wrap;html=1;fontSize=12;glass=0;strokeWidth=1;shadow=0;" vertex="1" parent="WIyWlLk6GJQsqaUBKTNV-1">
          <mxGeometry x="1624.5" y="766" width="120" height="40" as="geometry" />
        </mxCell>
        <mxCell id="0E-LU-rpmm0SCRFe6F6l-65" style="edgeStyle=orthogonalEdgeStyle;rounded=0;orthogonalLoop=1;jettySize=auto;html=1;exitX=1;exitY=0.5;exitDx=0;exitDy=0;entryX=0;entryY=0.5;entryDx=0;entryDy=0;" edge="1" parent="WIyWlLk6GJQsqaUBKTNV-1" source="O5qcWpgSKs4IgxdbwhYX-225" target="O5qcWpgSKs4IgxdbwhYX-229">
          <mxGeometry relative="1" as="geometry" />
        </mxCell>
        <mxCell id="0E-LU-rpmm0SCRFe6F6l-66" style="edgeStyle=orthogonalEdgeStyle;rounded=0;orthogonalLoop=1;jettySize=auto;html=1;exitX=1;exitY=1;exitDx=0;exitDy=0;entryX=0;entryY=0.5;entryDx=0;entryDy=0;" edge="1" parent="WIyWlLk6GJQsqaUBKTNV-1" source="O5qcWpgSKs4IgxdbwhYX-225" target="O5qcWpgSKs4IgxdbwhYX-230">
          <mxGeometry relative="1" as="geometry" />
        </mxCell>
        <mxCell id="0E-LU-rpmm0SCRFe6F6l-67" style="edgeStyle=orthogonalEdgeStyle;rounded=0;orthogonalLoop=1;jettySize=auto;html=1;exitX=1;exitY=0;exitDx=0;exitDy=0;entryX=0;entryY=0.5;entryDx=0;entryDy=0;" edge="1" parent="WIyWlLk6GJQsqaUBKTNV-1" source="O5qcWpgSKs4IgxdbwhYX-225" target="O5qcWpgSKs4IgxdbwhYX-228">
          <mxGeometry relative="1" as="geometry" />
        </mxCell>
        <mxCell id="O5qcWpgSKs4IgxdbwhYX-225" value="Expression" style="rounded=1;whiteSpace=wrap;html=1;fontSize=12;glass=0;strokeWidth=1;shadow=0;" vertex="1" parent="WIyWlLk6GJQsqaUBKTNV-1">
          <mxGeometry x="1484.5" y="879" width="120" height="40" as="geometry" />
        </mxCell>
        <mxCell id="O5qcWpgSKs4IgxdbwhYX-257" style="edgeStyle=orthogonalEdgeStyle;rounded=0;orthogonalLoop=1;jettySize=auto;html=1;exitX=1;exitY=0.5;exitDx=0;exitDy=0;entryX=0;entryY=0.5;entryDx=0;entryDy=0;" edge="1" parent="WIyWlLk6GJQsqaUBKTNV-1" source="O5qcWpgSKs4IgxdbwhYX-228" target="O5qcWpgSKs4IgxdbwhYX-252">
          <mxGeometry relative="1" as="geometry" />
        </mxCell>
        <mxCell id="O5qcWpgSKs4IgxdbwhYX-228" value="Expression" style="rounded=1;whiteSpace=wrap;html=1;fontSize=12;glass=0;strokeWidth=1;shadow=0;" vertex="1" parent="WIyWlLk6GJQsqaUBKTNV-1">
          <mxGeometry x="1648" y="838" width="120" height="40" as="geometry" />
        </mxCell>
        <mxCell id="O5qcWpgSKs4IgxdbwhYX-258" style="edgeStyle=orthogonalEdgeStyle;rounded=0;orthogonalLoop=1;jettySize=auto;html=1;exitX=1;exitY=0.5;exitDx=0;exitDy=0;entryX=0;entryY=0.5;entryDx=0;entryDy=0;" edge="1" parent="WIyWlLk6GJQsqaUBKTNV-1" source="O5qcWpgSKs4IgxdbwhYX-229" target="O5qcWpgSKs4IgxdbwhYX-200">
          <mxGeometry relative="1" as="geometry" />
        </mxCell>
        <mxCell id="O5qcWpgSKs4IgxdbwhYX-229" value="BinOp" style="rounded=1;whiteSpace=wrap;html=1;fontSize=12;glass=0;strokeWidth=1;shadow=0;" vertex="1" parent="WIyWlLk6GJQsqaUBKTNV-1">
          <mxGeometry x="1648" y="878" width="120" height="40" as="geometry" />
        </mxCell>
        <mxCell id="O5qcWpgSKs4IgxdbwhYX-261" value="" style="edgeStyle=orthogonalEdgeStyle;rounded=0;orthogonalLoop=1;jettySize=auto;html=1;" edge="1" parent="WIyWlLk6GJQsqaUBKTNV-1" source="O5qcWpgSKs4IgxdbwhYX-230" target="O5qcWpgSKs4IgxdbwhYX-260">
          <mxGeometry relative="1" as="geometry" />
        </mxCell>
        <mxCell id="O5qcWpgSKs4IgxdbwhYX-230" value="Expression" style="rounded=1;whiteSpace=wrap;html=1;fontSize=12;glass=0;strokeWidth=1;shadow=0;" vertex="1" parent="WIyWlLk6GJQsqaUBKTNV-1">
          <mxGeometry x="1648" y="918" width="120" height="40" as="geometry" />
        </mxCell>
        <mxCell id="O5qcWpgSKs4IgxdbwhYX-251" value="" style="edgeStyle=orthogonalEdgeStyle;rounded=0;orthogonalLoop=1;jettySize=auto;html=1;" edge="1" parent="WIyWlLk6GJQsqaUBKTNV-1" source="O5qcWpgSKs4IgxdbwhYX-252" target="O5qcWpgSKs4IgxdbwhYX-254">
          <mxGeometry relative="1" as="geometry" />
        </mxCell>
        <mxCell id="O5qcWpgSKs4IgxdbwhYX-252" value="Primary" style="rounded=1;whiteSpace=wrap;html=1;fontSize=12;glass=0;strokeWidth=1;shadow=0;" vertex="1" parent="WIyWlLk6GJQsqaUBKTNV-1">
          <mxGeometry x="1787" y="838" width="120" height="40" as="geometry" />
        </mxCell>
        <mxCell id="O5qcWpgSKs4IgxdbwhYX-253" value="" style="edgeStyle=orthogonalEdgeStyle;rounded=0;orthogonalLoop=1;jettySize=auto;html=1;" edge="1" parent="WIyWlLk6GJQsqaUBKTNV-1" source="O5qcWpgSKs4IgxdbwhYX-254" target="O5qcWpgSKs4IgxdbwhYX-255">
          <mxGeometry relative="1" as="geometry" />
        </mxCell>
        <mxCell id="O5qcWpgSKs4IgxdbwhYX-254" value="Name" style="rounded=1;whiteSpace=wrap;html=1;fontSize=12;glass=0;strokeWidth=1;shadow=0;" vertex="1" parent="WIyWlLk6GJQsqaUBKTNV-1">
          <mxGeometry x="1927" y="838" width="120" height="40" as="geometry" />
        </mxCell>
        <mxCell id="O5qcWpgSKs4IgxdbwhYX-256" style="edgeStyle=orthogonalEdgeStyle;rounded=0;orthogonalLoop=1;jettySize=auto;html=1;exitX=1;exitY=0.5;exitDx=0;exitDy=0;entryX=0;entryY=0.5;entryDx=0;entryDy=0;" edge="1" parent="WIyWlLk6GJQsqaUBKTNV-1" source="O5qcWpgSKs4IgxdbwhYX-255" target="O5qcWpgSKs4IgxdbwhYX-199">
          <mxGeometry relative="1" as="geometry" />
        </mxCell>
        <mxCell id="O5qcWpgSKs4IgxdbwhYX-255" value="ID" style="rounded=1;whiteSpace=wrap;html=1;fontSize=12;glass=0;strokeWidth=1;shadow=0;" vertex="1" parent="WIyWlLk6GJQsqaUBKTNV-1">
          <mxGeometry x="2067" y="838" width="120" height="40" as="geometry" />
        </mxCell>
        <mxCell id="I1Nj4VJWrZhrebcEaoRm-7" value="" style="edgeStyle=orthogonalEdgeStyle;rounded=0;orthogonalLoop=1;jettySize=auto;html=1;" edge="1" parent="WIyWlLk6GJQsqaUBKTNV-1" source="O5qcWpgSKs4IgxdbwhYX-260" target="I1Nj4VJWrZhrebcEaoRm-6">
          <mxGeometry relative="1" as="geometry" />
        </mxCell>
        <mxCell id="O5qcWpgSKs4IgxdbwhYX-260" value="Primary" style="rounded=1;whiteSpace=wrap;html=1;fontSize=12;glass=0;strokeWidth=1;shadow=0;" vertex="1" parent="WIyWlLk6GJQsqaUBKTNV-1">
          <mxGeometry x="1787" y="918" width="120" height="40" as="geometry" />
        </mxCell>
        <mxCell id="O5qcWpgSKs4IgxdbwhYX-264" style="edgeStyle=orthogonalEdgeStyle;rounded=0;orthogonalLoop=1;jettySize=auto;html=1;exitX=1;exitY=0.5;exitDx=0;exitDy=0;entryX=0;entryY=0.5;entryDx=0;entryDy=0;" edge="1" parent="WIyWlLk6GJQsqaUBKTNV-1" source="O5qcWpgSKs4IgxdbwhYX-262" target="O5qcWpgSKs4IgxdbwhYX-201">
          <mxGeometry relative="1" as="geometry" />
        </mxCell>
        <mxCell id="O5qcWpgSKs4IgxdbwhYX-262" value="ID" style="rounded=1;whiteSpace=wrap;html=1;fontSize=12;glass=0;strokeWidth=1;shadow=0;" vertex="1" parent="WIyWlLk6GJQsqaUBKTNV-1">
          <mxGeometry x="2067" y="919" width="120" height="40" as="geometry" />
        </mxCell>
        <mxCell id="0E-LU-rpmm0SCRFe6F6l-68" style="edgeStyle=orthogonalEdgeStyle;rounded=0;orthogonalLoop=1;jettySize=auto;html=1;exitX=1;exitY=0.5;exitDx=0;exitDy=0;entryX=0;entryY=0.5;entryDx=0;entryDy=0;" edge="1" parent="WIyWlLk6GJQsqaUBKTNV-1" source="O5qcWpgSKs4IgxdbwhYX-266" target="O5qcWpgSKs4IgxdbwhYX-272">
          <mxGeometry relative="1" as="geometry" />
        </mxCell>
        <mxCell id="O5qcWpgSKs4IgxdbwhYX-266" value="ExpressionList" style="rounded=1;whiteSpace=wrap;html=1;fontSize=12;glass=0;strokeWidth=1;shadow=0;" vertex="1" parent="WIyWlLk6GJQsqaUBKTNV-1">
          <mxGeometry x="2067" y="1019" width="120" height="40" as="geometry" />
        </mxCell>
        <mxCell id="O5qcWpgSKs4IgxdbwhYX-290" style="edgeStyle=orthogonalEdgeStyle;rounded=0;orthogonalLoop=1;jettySize=auto;html=1;exitX=1;exitY=0.5;exitDx=0;exitDy=0;entryX=0;entryY=0.5;entryDx=0;entryDy=0;" edge="1" parent="WIyWlLk6GJQsqaUBKTNV-1" source="O5qcWpgSKs4IgxdbwhYX-268" target="O5qcWpgSKs4IgxdbwhYX-285">
          <mxGeometry relative="1" as="geometry" />
        </mxCell>
        <mxCell id="O5qcWpgSKs4IgxdbwhYX-268" value="Expression" style="rounded=1;whiteSpace=wrap;html=1;fontSize=12;glass=0;strokeWidth=1;shadow=0;" vertex="1" parent="WIyWlLk6GJQsqaUBKTNV-1">
          <mxGeometry x="2358" y="979" width="120" height="40" as="geometry" />
        </mxCell>
        <mxCell id="O5qcWpgSKs4IgxdbwhYX-291" style="edgeStyle=orthogonalEdgeStyle;rounded=0;orthogonalLoop=1;jettySize=auto;html=1;exitX=1;exitY=0.5;exitDx=0;exitDy=0;entryX=0;entryY=0.5;entryDx=0;entryDy=0;" edge="1" parent="WIyWlLk6GJQsqaUBKTNV-1" source="O5qcWpgSKs4IgxdbwhYX-269" target="O5qcWpgSKs4IgxdbwhYX-204">
          <mxGeometry relative="1" as="geometry" />
        </mxCell>
        <mxCell id="O5qcWpgSKs4IgxdbwhYX-269" value="BinOp" style="rounded=1;whiteSpace=wrap;html=1;fontSize=12;glass=0;strokeWidth=1;shadow=0;" vertex="1" parent="WIyWlLk6GJQsqaUBKTNV-1">
          <mxGeometry x="2358" y="1019" width="120" height="40" as="geometry" />
        </mxCell>
        <mxCell id="O5qcWpgSKs4IgxdbwhYX-270" value="Expression" style="rounded=1;whiteSpace=wrap;html=1;fontSize=12;glass=0;strokeWidth=1;shadow=0;" vertex="1" parent="WIyWlLk6GJQsqaUBKTNV-1">
          <mxGeometry x="2358" y="1059" width="120" height="40" as="geometry" />
        </mxCell>
        <mxCell id="0E-LU-rpmm0SCRFe6F6l-71" style="edgeStyle=orthogonalEdgeStyle;rounded=0;orthogonalLoop=1;jettySize=auto;html=1;exitX=1;exitY=0.5;exitDx=0;exitDy=0;entryX=0;entryY=0.5;entryDx=0;entryDy=0;" edge="1" parent="WIyWlLk6GJQsqaUBKTNV-1" source="O5qcWpgSKs4IgxdbwhYX-272" target="O5qcWpgSKs4IgxdbwhYX-269">
          <mxGeometry relative="1" as="geometry" />
        </mxCell>
        <mxCell id="O5qcWpgSKs4IgxdbwhYX-272" value="Expression" style="rounded=1;whiteSpace=wrap;html=1;fontSize=12;glass=0;strokeWidth=1;shadow=0;" vertex="1" parent="WIyWlLk6GJQsqaUBKTNV-1">
          <mxGeometry x="2212" y="1019" width="120" height="40" as="geometry" />
        </mxCell>
        <mxCell id="O5qcWpgSKs4IgxdbwhYX-284" value="" style="edgeStyle=orthogonalEdgeStyle;rounded=0;orthogonalLoop=1;jettySize=auto;html=1;" edge="1" parent="WIyWlLk6GJQsqaUBKTNV-1" source="O5qcWpgSKs4IgxdbwhYX-285" target="O5qcWpgSKs4IgxdbwhYX-287">
          <mxGeometry relative="1" as="geometry" />
        </mxCell>
        <mxCell id="O5qcWpgSKs4IgxdbwhYX-285" value="Primary" style="rounded=1;whiteSpace=wrap;html=1;fontSize=12;glass=0;strokeWidth=1;shadow=0;" vertex="1" parent="WIyWlLk6GJQsqaUBKTNV-1">
          <mxGeometry x="2500" y="979" width="120" height="40" as="geometry" />
        </mxCell>
        <mxCell id="O5qcWpgSKs4IgxdbwhYX-286" value="" style="edgeStyle=orthogonalEdgeStyle;rounded=0;orthogonalLoop=1;jettySize=auto;html=1;" edge="1" parent="WIyWlLk6GJQsqaUBKTNV-1" source="O5qcWpgSKs4IgxdbwhYX-287" target="O5qcWpgSKs4IgxdbwhYX-288">
          <mxGeometry relative="1" as="geometry" />
        </mxCell>
        <mxCell id="O5qcWpgSKs4IgxdbwhYX-287" value="Name" style="rounded=1;whiteSpace=wrap;html=1;fontSize=12;glass=0;strokeWidth=1;shadow=0;" vertex="1" parent="WIyWlLk6GJQsqaUBKTNV-1">
          <mxGeometry x="2647" y="979" width="120" height="40" as="geometry" />
        </mxCell>
        <mxCell id="O5qcWpgSKs4IgxdbwhYX-289" style="edgeStyle=orthogonalEdgeStyle;rounded=0;orthogonalLoop=1;jettySize=auto;html=1;exitX=1;exitY=0.5;exitDx=0;exitDy=0;entryX=0;entryY=0.5;entryDx=0;entryDy=0;" edge="1" parent="WIyWlLk6GJQsqaUBKTNV-1" source="O5qcWpgSKs4IgxdbwhYX-288" target="O5qcWpgSKs4IgxdbwhYX-203">
          <mxGeometry relative="1" as="geometry" />
        </mxCell>
        <mxCell id="O5qcWpgSKs4IgxdbwhYX-288" value="ID" style="rounded=1;whiteSpace=wrap;html=1;fontSize=12;glass=0;strokeWidth=1;shadow=0;" vertex="1" parent="WIyWlLk6GJQsqaUBKTNV-1">
          <mxGeometry x="2787" y="979" width="120" height="40" as="geometry" />
        </mxCell>
        <mxCell id="O5qcWpgSKs4IgxdbwhYX-292" value="" style="edgeStyle=orthogonalEdgeStyle;rounded=0;orthogonalLoop=1;jettySize=auto;html=1;" edge="1" parent="WIyWlLk6GJQsqaUBKTNV-1" source="O5qcWpgSKs4IgxdbwhYX-293" target="O5qcWpgSKs4IgxdbwhYX-294">
          <mxGeometry relative="1" as="geometry" />
        </mxCell>
        <mxCell id="O5qcWpgSKs4IgxdbwhYX-293" value="Primary" style="rounded=1;whiteSpace=wrap;html=1;fontSize=12;glass=0;strokeWidth=1;shadow=0;" vertex="1" parent="WIyWlLk6GJQsqaUBKTNV-1">
          <mxGeometry x="2500" y="1059" width="120" height="40" as="geometry" />
        </mxCell>
        <mxCell id="O5qcWpgSKs4IgxdbwhYX-295" style="edgeStyle=orthogonalEdgeStyle;rounded=0;orthogonalLoop=1;jettySize=auto;html=1;exitX=1;exitY=0.5;exitDx=0;exitDy=0;entryX=0;entryY=0.5;entryDx=0;entryDy=0;" edge="1" parent="WIyWlLk6GJQsqaUBKTNV-1" source="O5qcWpgSKs4IgxdbwhYX-294" target="O5qcWpgSKs4IgxdbwhYX-205">
          <mxGeometry relative="1" as="geometry" />
        </mxCell>
        <mxCell id="O5qcWpgSKs4IgxdbwhYX-294" value="LITERAL" style="rounded=1;whiteSpace=wrap;html=1;fontSize=12;glass=0;strokeWidth=1;shadow=0;" vertex="1" parent="WIyWlLk6GJQsqaUBKTNV-1">
          <mxGeometry x="2644" y="1059" width="120" height="40" as="geometry" />
        </mxCell>
        <mxCell id="O5qcWpgSKs4IgxdbwhYX-301" value="" style="edgeStyle=orthogonalEdgeStyle;rounded=0;orthogonalLoop=1;jettySize=auto;html=1;" edge="1" parent="WIyWlLk6GJQsqaUBKTNV-1" source="O5qcWpgSKs4IgxdbwhYX-298" target="O5qcWpgSKs4IgxdbwhYX-300">
          <mxGeometry relative="1" as="geometry" />
        </mxCell>
        <mxCell id="O5qcWpgSKs4IgxdbwhYX-298" value="StatementList" style="rounded=1;whiteSpace=wrap;html=1;fontSize=12;glass=0;strokeWidth=1;shadow=0;" vertex="1" parent="WIyWlLk6GJQsqaUBKTNV-1">
          <mxGeometry x="1159.5" y="891" width="120" height="40" as="geometry" />
        </mxCell>
        <mxCell id="O5qcWpgSKs4IgxdbwhYX-302" style="edgeStyle=orthogonalEdgeStyle;rounded=0;orthogonalLoop=1;jettySize=auto;html=1;exitX=0.5;exitY=1;exitDx=0;exitDy=0;entryX=0;entryY=0.5;entryDx=0;entryDy=0;" edge="1" parent="WIyWlLk6GJQsqaUBKTNV-1" source="O5qcWpgSKs4IgxdbwhYX-300" target="O5qcWpgSKs4IgxdbwhYX-207">
          <mxGeometry relative="1" as="geometry" />
        </mxCell>
        <mxCell id="0E-LU-rpmm0SCRFe6F6l-58" style="edgeStyle=orthogonalEdgeStyle;rounded=0;orthogonalLoop=1;jettySize=auto;html=1;exitX=0.75;exitY=1;exitDx=0;exitDy=0;entryX=0;entryY=0.5;entryDx=0;entryDy=0;" edge="1" parent="WIyWlLk6GJQsqaUBKTNV-1" source="O5qcWpgSKs4IgxdbwhYX-300" target="O5qcWpgSKs4IgxdbwhYX-303">
          <mxGeometry relative="1" as="geometry" />
        </mxCell>
        <mxCell id="O5qcWpgSKs4IgxdbwhYX-300" value="Statement" style="rounded=1;whiteSpace=wrap;html=1;fontSize=12;glass=0;strokeWidth=1;shadow=0;" vertex="1" parent="WIyWlLk6GJQsqaUBKTNV-1">
          <mxGeometry x="1318.5" y="891" width="120" height="40" as="geometry" />
        </mxCell>
        <mxCell id="O5qcWpgSKs4IgxdbwhYX-303" value="&quot;;&quot;" style="rounded=1;whiteSpace=wrap;html=1;fontSize=12;glass=0;strokeWidth=1;shadow=0;fillColor=#1ba1e2;fontColor=#ffffff;strokeColor=#006EAF;" vertex="1" parent="WIyWlLk6GJQsqaUBKTNV-1">
          <mxGeometry x="1428" y="946" width="120" height="40" as="geometry" />
        </mxCell>
        <mxCell id="O5qcWpgSKs4IgxdbwhYX-307" value="&quot;ENDFRAGMENT&quot;" style="rounded=1;whiteSpace=wrap;html=1;fontSize=12;glass=0;strokeWidth=1;shadow=0;fillColor=#1ba1e2;fontColor=#ffffff;strokeColor=#006EAF;" vertex="1" parent="WIyWlLk6GJQsqaUBKTNV-1">
          <mxGeometry x="990" y="882" width="120" height="40" as="geometry" />
        </mxCell>
        <mxCell id="O5qcWpgSKs4IgxdbwhYX-309" value="&quot;ELSE&quot;" style="rounded=1;whiteSpace=wrap;html=1;fontSize=12;glass=0;strokeWidth=1;shadow=0;fillColor=#1ba1e2;fontColor=#ffffff;strokeColor=#006EAF;" vertex="1" parent="WIyWlLk6GJQsqaUBKTNV-1">
          <mxGeometry x="842.5" y="650" width="120" height="40" as="geometry" />
        </mxCell>
        <mxCell id="O5qcWpgSKs4IgxdbwhYX-397" value="&quot;;&quot;" style="rounded=1;whiteSpace=wrap;html=1;fontSize=12;glass=0;strokeWidth=1;shadow=0;fillColor=#1ba1e2;fontColor=#ffffff;strokeColor=#006EAF;" vertex="1" parent="WIyWlLk6GJQsqaUBKTNV-1">
          <mxGeometry x="842.5" y="1236" width="120" height="40" as="geometry" />
        </mxCell>
        <mxCell id="O5qcWpgSKs4IgxdbwhYX-399" value="&quot;Fatorial&quot;" style="rounded=1;whiteSpace=wrap;html=1;fontSize=12;glass=0;strokeWidth=1;shadow=0;fillColor=#1ba1e2;fontColor=#ffffff;strokeColor=#006EAF;" vertex="1" parent="WIyWlLk6GJQsqaUBKTNV-1">
          <mxGeometry x="1283" y="1122" width="120" height="40" as="geometry" />
        </mxCell>
        <mxCell id="O5qcWpgSKs4IgxdbwhYX-400" value="&quot;=&quot;" style="rounded=1;whiteSpace=wrap;html=1;fontSize=12;glass=0;strokeWidth=1;shadow=0;fillColor=#1ba1e2;fontColor=#ffffff;strokeColor=#006EAF;" vertex="1" parent="WIyWlLk6GJQsqaUBKTNV-1">
          <mxGeometry x="1004" y="1162" width="120" height="40" as="geometry" />
        </mxCell>
        <mxCell id="O5qcWpgSKs4IgxdbwhYX-401" value="&quot;n&quot;" style="rounded=1;whiteSpace=wrap;html=1;fontSize=12;glass=0;strokeWidth=1;shadow=0;fillColor=#1ba1e2;fontColor=#ffffff;strokeColor=#006EAF;" vertex="1" parent="WIyWlLk6GJQsqaUBKTNV-1">
          <mxGeometry x="1718" y="1196" width="120" height="40" as="geometry" />
        </mxCell>
        <mxCell id="O5qcWpgSKs4IgxdbwhYX-402" value="&quot;*&quot;" style="rounded=1;whiteSpace=wrap;html=1;fontSize=12;glass=0;strokeWidth=1;shadow=0;fillColor=#1ba1e2;fontColor=#ffffff;strokeColor=#006EAF;" vertex="1" parent="WIyWlLk6GJQsqaUBKTNV-1">
          <mxGeometry x="1297.5" y="1236" width="120" height="40" as="geometry" />
        </mxCell>
        <mxCell id="O5qcWpgSKs4IgxdbwhYX-403" value="&quot;Fatorial&quot;" style="rounded=1;whiteSpace=wrap;html=1;fontSize=12;glass=0;strokeWidth=1;shadow=0;fillColor=#1ba1e2;fontColor=#ffffff;strokeColor=#006EAF;" vertex="1" parent="WIyWlLk6GJQsqaUBKTNV-1">
          <mxGeometry x="1721.5" y="1276" width="120" height="40" as="geometry" />
        </mxCell>
        <mxCell id="O5qcWpgSKs4IgxdbwhYX-411" style="edgeStyle=orthogonalEdgeStyle;rounded=0;orthogonalLoop=1;jettySize=auto;html=1;exitX=1;exitY=0.75;exitDx=0;exitDy=0;entryX=0;entryY=0.5;entryDx=0;entryDy=0;" edge="1" parent="WIyWlLk6GJQsqaUBKTNV-1" source="O5qcWpgSKs4IgxdbwhYX-412" target="O5qcWpgSKs4IgxdbwhYX-420">
          <mxGeometry relative="1" as="geometry" />
        </mxCell>
        <mxCell id="0E-LU-rpmm0SCRFe6F6l-77" style="edgeStyle=orthogonalEdgeStyle;rounded=0;orthogonalLoop=1;jettySize=auto;html=1;exitX=1;exitY=0.25;exitDx=0;exitDy=0;entryX=0;entryY=0.5;entryDx=0;entryDy=0;" edge="1" parent="WIyWlLk6GJQsqaUBKTNV-1" source="O5qcWpgSKs4IgxdbwhYX-412" target="O5qcWpgSKs4IgxdbwhYX-414">
          <mxGeometry relative="1" as="geometry" />
        </mxCell>
        <mxCell id="0E-LU-rpmm0SCRFe6F6l-78" style="edgeStyle=orthogonalEdgeStyle;rounded=0;orthogonalLoop=1;jettySize=auto;html=1;exitX=1;exitY=0.5;exitDx=0;exitDy=0;entryX=0;entryY=0.5;entryDx=0;entryDy=0;" edge="1" parent="WIyWlLk6GJQsqaUBKTNV-1" source="O5qcWpgSKs4IgxdbwhYX-412" target="O5qcWpgSKs4IgxdbwhYX-400">
          <mxGeometry relative="1" as="geometry" />
        </mxCell>
        <mxCell id="0E-LU-rpmm0SCRFe6F6l-86" style="edgeStyle=orthogonalEdgeStyle;rounded=0;orthogonalLoop=1;jettySize=auto;html=1;exitX=0.5;exitY=1;exitDx=0;exitDy=0;entryX=0.5;entryY=0;entryDx=0;entryDy=0;" edge="1" parent="WIyWlLk6GJQsqaUBKTNV-1" source="O5qcWpgSKs4IgxdbwhYX-412" target="O5qcWpgSKs4IgxdbwhYX-397">
          <mxGeometry relative="1" as="geometry" />
        </mxCell>
        <mxCell id="O5qcWpgSKs4IgxdbwhYX-412" value="Statement" style="rounded=1;whiteSpace=wrap;html=1;fontSize=12;glass=0;strokeWidth=1;shadow=0;" vertex="1" parent="WIyWlLk6GJQsqaUBKTNV-1">
          <mxGeometry x="842.5" y="1162" width="120" height="40" as="geometry" />
        </mxCell>
        <mxCell id="O5qcWpgSKs4IgxdbwhYX-413" value="" style="edgeStyle=orthogonalEdgeStyle;rounded=0;orthogonalLoop=1;jettySize=auto;html=1;" edge="1" parent="WIyWlLk6GJQsqaUBKTNV-1" source="O5qcWpgSKs4IgxdbwhYX-414" target="O5qcWpgSKs4IgxdbwhYX-416">
          <mxGeometry relative="1" as="geometry" />
        </mxCell>
        <mxCell id="O5qcWpgSKs4IgxdbwhYX-414" value="Destiny" style="rounded=1;whiteSpace=wrap;html=1;fontSize=12;glass=0;strokeWidth=1;shadow=0;" vertex="1" parent="WIyWlLk6GJQsqaUBKTNV-1">
          <mxGeometry x="1004" y="1122" width="120" height="40" as="geometry" />
        </mxCell>
        <mxCell id="O5qcWpgSKs4IgxdbwhYX-415" style="edgeStyle=orthogonalEdgeStyle;rounded=0;orthogonalLoop=1;jettySize=auto;html=1;exitX=1;exitY=0.5;exitDx=0;exitDy=0;entryX=0;entryY=0.5;entryDx=0;entryDy=0;" edge="1" parent="WIyWlLk6GJQsqaUBKTNV-1" source="O5qcWpgSKs4IgxdbwhYX-416" target="O5qcWpgSKs4IgxdbwhYX-399">
          <mxGeometry relative="1" as="geometry" />
        </mxCell>
        <mxCell id="O5qcWpgSKs4IgxdbwhYX-416" value="ID" style="rounded=1;whiteSpace=wrap;html=1;fontSize=12;glass=0;strokeWidth=1;shadow=0;" vertex="1" parent="WIyWlLk6GJQsqaUBKTNV-1">
          <mxGeometry x="1141.5" y="1122" width="120" height="40" as="geometry" />
        </mxCell>
        <mxCell id="0E-LU-rpmm0SCRFe6F6l-82" style="edgeStyle=orthogonalEdgeStyle;rounded=0;orthogonalLoop=1;jettySize=auto;html=1;exitX=1;exitY=0.25;exitDx=0;exitDy=0;entryX=0;entryY=0.5;entryDx=0;entryDy=0;" edge="1" parent="WIyWlLk6GJQsqaUBKTNV-1" source="O5qcWpgSKs4IgxdbwhYX-420" target="O5qcWpgSKs4IgxdbwhYX-422">
          <mxGeometry relative="1" as="geometry" />
        </mxCell>
        <mxCell id="0E-LU-rpmm0SCRFe6F6l-83" style="edgeStyle=orthogonalEdgeStyle;rounded=0;orthogonalLoop=1;jettySize=auto;html=1;exitX=1;exitY=0.5;exitDx=0;exitDy=0;entryX=0;entryY=0.5;entryDx=0;entryDy=0;" edge="1" parent="WIyWlLk6GJQsqaUBKTNV-1" source="O5qcWpgSKs4IgxdbwhYX-420" target="O5qcWpgSKs4IgxdbwhYX-424">
          <mxGeometry relative="1" as="geometry" />
        </mxCell>
        <mxCell id="0E-LU-rpmm0SCRFe6F6l-84" style="edgeStyle=orthogonalEdgeStyle;rounded=0;orthogonalLoop=1;jettySize=auto;html=1;exitX=1;exitY=0.75;exitDx=0;exitDy=0;entryX=0;entryY=0.5;entryDx=0;entryDy=0;" edge="1" parent="WIyWlLk6GJQsqaUBKTNV-1" source="O5qcWpgSKs4IgxdbwhYX-420" target="O5qcWpgSKs4IgxdbwhYX-426">
          <mxGeometry relative="1" as="geometry" />
        </mxCell>
        <mxCell id="O5qcWpgSKs4IgxdbwhYX-420" value="Expression" style="rounded=1;whiteSpace=wrap;html=1;fontSize=12;glass=0;strokeWidth=1;shadow=0;" vertex="1" parent="WIyWlLk6GJQsqaUBKTNV-1">
          <mxGeometry x="1004" y="1236" width="120" height="40" as="geometry" />
        </mxCell>
        <mxCell id="O5qcWpgSKs4IgxdbwhYX-421" style="edgeStyle=orthogonalEdgeStyle;rounded=0;orthogonalLoop=1;jettySize=auto;html=1;exitX=1;exitY=0.5;exitDx=0;exitDy=0;entryX=0;entryY=0.5;entryDx=0;entryDy=0;" edge="1" parent="WIyWlLk6GJQsqaUBKTNV-1" source="O5qcWpgSKs4IgxdbwhYX-422" target="O5qcWpgSKs4IgxdbwhYX-428">
          <mxGeometry relative="1" as="geometry" />
        </mxCell>
        <mxCell id="O5qcWpgSKs4IgxdbwhYX-422" value="Expression" style="rounded=1;whiteSpace=wrap;html=1;fontSize=12;glass=0;strokeWidth=1;shadow=0;" vertex="1" parent="WIyWlLk6GJQsqaUBKTNV-1">
          <mxGeometry x="1156" y="1196" width="120" height="40" as="geometry" />
        </mxCell>
        <mxCell id="0E-LU-rpmm0SCRFe6F6l-85" style="edgeStyle=orthogonalEdgeStyle;rounded=0;orthogonalLoop=1;jettySize=auto;html=1;exitX=1;exitY=0.5;exitDx=0;exitDy=0;entryX=0;entryY=0.5;entryDx=0;entryDy=0;" edge="1" parent="WIyWlLk6GJQsqaUBKTNV-1" source="O5qcWpgSKs4IgxdbwhYX-424" target="O5qcWpgSKs4IgxdbwhYX-402">
          <mxGeometry relative="1" as="geometry" />
        </mxCell>
        <mxCell id="O5qcWpgSKs4IgxdbwhYX-424" value="BinOp" style="rounded=1;whiteSpace=wrap;html=1;fontSize=12;glass=0;strokeWidth=1;shadow=0;" vertex="1" parent="WIyWlLk6GJQsqaUBKTNV-1">
          <mxGeometry x="1156" y="1236" width="120" height="40" as="geometry" />
        </mxCell>
        <mxCell id="WOss_ckVHwlz0GYuxbEu-71" style="edgeStyle=orthogonalEdgeStyle;rounded=0;orthogonalLoop=1;jettySize=auto;html=1;exitX=1;exitY=0.5;exitDx=0;exitDy=0;" edge="1" parent="WIyWlLk6GJQsqaUBKTNV-1" source="O5qcWpgSKs4IgxdbwhYX-426" target="WOss_ckVHwlz0GYuxbEu-69">
          <mxGeometry relative="1" as="geometry" />
        </mxCell>
        <mxCell id="O5qcWpgSKs4IgxdbwhYX-426" value="Expression" style="rounded=1;whiteSpace=wrap;html=1;fontSize=12;glass=0;strokeWidth=1;shadow=0;" vertex="1" parent="WIyWlLk6GJQsqaUBKTNV-1">
          <mxGeometry x="1156" y="1276" width="120" height="40" as="geometry" />
        </mxCell>
        <mxCell id="O5qcWpgSKs4IgxdbwhYX-427" value="" style="edgeStyle=orthogonalEdgeStyle;rounded=0;orthogonalLoop=1;jettySize=auto;html=1;" edge="1" parent="WIyWlLk6GJQsqaUBKTNV-1" source="O5qcWpgSKs4IgxdbwhYX-428" target="O5qcWpgSKs4IgxdbwhYX-430">
          <mxGeometry relative="1" as="geometry" />
        </mxCell>
        <mxCell id="O5qcWpgSKs4IgxdbwhYX-428" value="Primary" style="rounded=1;whiteSpace=wrap;html=1;fontSize=12;glass=0;strokeWidth=1;shadow=0;" vertex="1" parent="WIyWlLk6GJQsqaUBKTNV-1">
          <mxGeometry x="1297.5" y="1196" width="120" height="40" as="geometry" />
        </mxCell>
        <mxCell id="O5qcWpgSKs4IgxdbwhYX-429" value="" style="edgeStyle=orthogonalEdgeStyle;rounded=0;orthogonalLoop=1;jettySize=auto;html=1;" edge="1" parent="WIyWlLk6GJQsqaUBKTNV-1" source="O5qcWpgSKs4IgxdbwhYX-430" target="O5qcWpgSKs4IgxdbwhYX-432">
          <mxGeometry relative="1" as="geometry" />
        </mxCell>
        <mxCell id="O5qcWpgSKs4IgxdbwhYX-430" value="Name" style="rounded=1;whiteSpace=wrap;html=1;fontSize=12;glass=0;strokeWidth=1;shadow=0;" vertex="1" parent="WIyWlLk6GJQsqaUBKTNV-1">
          <mxGeometry x="1438.5" y="1196" width="120" height="40" as="geometry" />
        </mxCell>
        <mxCell id="O5qcWpgSKs4IgxdbwhYX-431" style="edgeStyle=orthogonalEdgeStyle;rounded=0;orthogonalLoop=1;jettySize=auto;html=1;exitX=1;exitY=0.5;exitDx=0;exitDy=0;entryX=0;entryY=0.5;entryDx=0;entryDy=0;" edge="1" parent="WIyWlLk6GJQsqaUBKTNV-1" source="O5qcWpgSKs4IgxdbwhYX-432" target="O5qcWpgSKs4IgxdbwhYX-401">
          <mxGeometry relative="1" as="geometry" />
        </mxCell>
        <mxCell id="O5qcWpgSKs4IgxdbwhYX-432" value="ID" style="rounded=1;whiteSpace=wrap;html=1;fontSize=12;glass=0;strokeWidth=1;shadow=0;" vertex="1" parent="WIyWlLk6GJQsqaUBKTNV-1">
          <mxGeometry x="1578.5" y="1196" width="120" height="40" as="geometry" />
        </mxCell>
        <mxCell id="O5qcWpgSKs4IgxdbwhYX-433" value="" style="edgeStyle=orthogonalEdgeStyle;rounded=0;orthogonalLoop=1;jettySize=auto;html=1;" edge="1" parent="WIyWlLk6GJQsqaUBKTNV-1" source="O5qcWpgSKs4IgxdbwhYX-437" target="O5qcWpgSKs4IgxdbwhYX-439">
          <mxGeometry relative="1" as="geometry" />
        </mxCell>
        <mxCell id="0E-LU-rpmm0SCRFe6F6l-113" style="edgeStyle=orthogonalEdgeStyle;rounded=0;orthogonalLoop=1;jettySize=auto;html=1;exitX=0.75;exitY=1;exitDx=0;exitDy=0;entryX=0;entryY=0.5;entryDx=0;entryDy=0;" edge="1" parent="WIyWlLk6GJQsqaUBKTNV-1" source="O5qcWpgSKs4IgxdbwhYX-437" target="0E-LU-rpmm0SCRFe6F6l-87">
          <mxGeometry relative="1" as="geometry" />
        </mxCell>
        <mxCell id="0E-LU-rpmm0SCRFe6F6l-114" style="edgeStyle=orthogonalEdgeStyle;rounded=0;orthogonalLoop=1;jettySize=auto;html=1;exitX=0.5;exitY=1;exitDx=0;exitDy=0;entryX=0;entryY=0.5;entryDx=0;entryDy=0;" edge="1" parent="WIyWlLk6GJQsqaUBKTNV-1" source="O5qcWpgSKs4IgxdbwhYX-437" target="0E-LU-rpmm0SCRFe6F6l-93">
          <mxGeometry relative="1" as="geometry" />
        </mxCell>
        <mxCell id="0E-LU-rpmm0SCRFe6F6l-115" style="edgeStyle=orthogonalEdgeStyle;rounded=0;orthogonalLoop=1;jettySize=auto;html=1;exitX=0.25;exitY=1;exitDx=0;exitDy=0;entryX=0;entryY=0.5;entryDx=0;entryDy=0;" edge="1" parent="WIyWlLk6GJQsqaUBKTNV-1" source="O5qcWpgSKs4IgxdbwhYX-437" target="0E-LU-rpmm0SCRFe6F6l-91">
          <mxGeometry relative="1" as="geometry" />
        </mxCell>
        <mxCell id="O5qcWpgSKs4IgxdbwhYX-437" value="Calfunc" style="rounded=1;whiteSpace=wrap;html=1;fontSize=12;glass=0;strokeWidth=1;shadow=0;" vertex="1" parent="WIyWlLk6GJQsqaUBKTNV-1">
          <mxGeometry x="1438.5" y="1276" width="120" height="40" as="geometry" />
        </mxCell>
        <mxCell id="O5qcWpgSKs4IgxdbwhYX-438" style="edgeStyle=orthogonalEdgeStyle;rounded=0;orthogonalLoop=1;jettySize=auto;html=1;exitX=1;exitY=0.5;exitDx=0;exitDy=0;entryX=0;entryY=0.5;entryDx=0;entryDy=0;" edge="1" parent="WIyWlLk6GJQsqaUBKTNV-1" source="O5qcWpgSKs4IgxdbwhYX-439" target="O5qcWpgSKs4IgxdbwhYX-403">
          <mxGeometry relative="1" as="geometry" />
        </mxCell>
        <mxCell id="O5qcWpgSKs4IgxdbwhYX-439" value="ID" style="rounded=1;whiteSpace=wrap;html=1;fontSize=12;glass=0;strokeWidth=1;shadow=0;" vertex="1" parent="WIyWlLk6GJQsqaUBKTNV-1">
          <mxGeometry x="1581.5" y="1276" width="120" height="40" as="geometry" />
        </mxCell>
        <mxCell id="O5qcWpgSKs4IgxdbwhYX-464" value="ENDFRAGMENT" style="rounded=1;whiteSpace=wrap;html=1;fontSize=12;glass=0;strokeWidth=1;shadow=0;fillColor=#1ba1e2;fontColor=#ffffff;strokeColor=#006EAF;" vertex="1" parent="WIyWlLk6GJQsqaUBKTNV-1">
          <mxGeometry x="370" y="148" width="120" height="40" as="geometry" />
        </mxCell>
        <mxCell id="O5qcWpgSKs4IgxdbwhYX-494" value="" style="edgeStyle=orthogonalEdgeStyle;rounded=0;orthogonalLoop=1;jettySize=auto;html=1;" edge="1" parent="WIyWlLk6GJQsqaUBKTNV-1" source="O5qcWpgSKs4IgxdbwhYX-467" target="O5qcWpgSKs4IgxdbwhYX-493">
          <mxGeometry relative="1" as="geometry" />
        </mxCell>
        <mxCell id="0E-LU-rpmm0SCRFe6F6l-136" style="edgeStyle=orthogonalEdgeStyle;rounded=0;orthogonalLoop=1;jettySize=auto;html=1;exitX=1;exitY=0.5;exitDx=0;exitDy=0;entryX=0;entryY=0.5;entryDx=0;entryDy=0;" edge="1" parent="WIyWlLk6GJQsqaUBKTNV-1" source="O5qcWpgSKs4IgxdbwhYX-467" target="0E-LU-rpmm0SCRFe6F6l-122">
          <mxGeometry relative="1" as="geometry" />
        </mxCell>
        <mxCell id="O5qcWpgSKs4IgxdbwhYX-467" value="StatementList" style="rounded=1;whiteSpace=wrap;html=1;fontSize=12;glass=0;strokeWidth=1;shadow=0;fillColor=#008a00;fontColor=#ffffff;strokeColor=#005700;" vertex="1" parent="WIyWlLk6GJQsqaUBKTNV-1">
          <mxGeometry x="46" y="1488" width="120" height="40" as="geometry" />
        </mxCell>
        <mxCell id="O5qcWpgSKs4IgxdbwhYX-489" value="&quot;numFatorial&quot;" style="rounded=1;whiteSpace=wrap;html=1;fontSize=12;glass=0;strokeWidth=1;shadow=0;fillColor=#1ba1e2;fontColor=#ffffff;strokeColor=#006EAF;" vertex="1" parent="WIyWlLk6GJQsqaUBKTNV-1">
          <mxGeometry x="646" y="1573" width="120" height="40" as="geometry" />
        </mxCell>
        <mxCell id="O5qcWpgSKs4IgxdbwhYX-490" value="&quot;=&quot;" style="rounded=1;whiteSpace=wrap;html=1;fontSize=12;glass=0;strokeWidth=1;shadow=0;fillColor=#1ba1e2;fontColor=#ffffff;strokeColor=#006EAF;" vertex="1" parent="WIyWlLk6GJQsqaUBKTNV-1">
          <mxGeometry x="366" y="1613" width="120" height="40" as="geometry" />
        </mxCell>
        <mxCell id="O5qcWpgSKs4IgxdbwhYX-491" value="&quot;10&quot;" style="rounded=1;whiteSpace=wrap;html=1;fontSize=12;glass=0;strokeWidth=1;shadow=0;fillColor=#1ba1e2;fontColor=#ffffff;strokeColor=#006EAF;" vertex="1" parent="WIyWlLk6GJQsqaUBKTNV-1">
          <mxGeometry x="781" y="1653" width="120" height="40" as="geometry" />
        </mxCell>
        <mxCell id="O5qcWpgSKs4IgxdbwhYX-492" value="&quot;;&quot;" style="rounded=1;whiteSpace=wrap;html=1;fontSize=12;glass=0;strokeWidth=1;shadow=0;fillColor=#1ba1e2;fontColor=#ffffff;strokeColor=#006EAF;" vertex="1" parent="WIyWlLk6GJQsqaUBKTNV-1">
          <mxGeometry x="212" y="1674" width="120" height="40" as="geometry" />
        </mxCell>
        <mxCell id="O5qcWpgSKs4IgxdbwhYX-517" value="" style="edgeStyle=orthogonalEdgeStyle;rounded=0;orthogonalLoop=1;jettySize=auto;html=1;" edge="1" parent="WIyWlLk6GJQsqaUBKTNV-1" source="O5qcWpgSKs4IgxdbwhYX-493" target="O5qcWpgSKs4IgxdbwhYX-516">
          <mxGeometry relative="1" as="geometry" />
        </mxCell>
        <mxCell id="0E-LU-rpmm0SCRFe6F6l-142" style="edgeStyle=orthogonalEdgeStyle;rounded=0;orthogonalLoop=1;jettySize=auto;html=1;exitX=1;exitY=0.5;exitDx=0;exitDy=0;entryX=0;entryY=0.5;entryDx=0;entryDy=0;" edge="1" parent="WIyWlLk6GJQsqaUBKTNV-1" source="O5qcWpgSKs4IgxdbwhYX-493" target="O5qcWpgSKs4IgxdbwhYX-500">
          <mxGeometry relative="1" as="geometry" />
        </mxCell>
        <mxCell id="O5qcWpgSKs4IgxdbwhYX-493" value="StatementList" style="rounded=1;whiteSpace=wrap;html=1;fontSize=12;glass=0;strokeWidth=1;shadow=0;fillColor=#008a00;fontColor=#ffffff;strokeColor=#005700;" vertex="1" parent="WIyWlLk6GJQsqaUBKTNV-1">
          <mxGeometry x="46" y="1613" width="120" height="40" as="geometry" />
        </mxCell>
        <mxCell id="O5qcWpgSKs4IgxdbwhYX-499" style="edgeStyle=orthogonalEdgeStyle;rounded=0;orthogonalLoop=1;jettySize=auto;html=1;exitX=1;exitY=0.75;exitDx=0;exitDy=0;entryX=0;entryY=0.5;entryDx=0;entryDy=0;" edge="1" parent="WIyWlLk6GJQsqaUBKTNV-1" source="O5qcWpgSKs4IgxdbwhYX-500" target="O5qcWpgSKs4IgxdbwhYX-504">
          <mxGeometry relative="1" as="geometry" />
        </mxCell>
        <mxCell id="0E-LU-rpmm0SCRFe6F6l-141" style="edgeStyle=orthogonalEdgeStyle;rounded=0;orthogonalLoop=1;jettySize=auto;html=1;exitX=0.5;exitY=1;exitDx=0;exitDy=0;entryX=0.5;entryY=0;entryDx=0;entryDy=0;" edge="1" parent="WIyWlLk6GJQsqaUBKTNV-1" source="O5qcWpgSKs4IgxdbwhYX-500" target="O5qcWpgSKs4IgxdbwhYX-492">
          <mxGeometry relative="1" as="geometry" />
        </mxCell>
        <mxCell id="0E-LU-rpmm0SCRFe6F6l-143" style="edgeStyle=orthogonalEdgeStyle;rounded=0;orthogonalLoop=1;jettySize=auto;html=1;exitX=1;exitY=0.5;exitDx=0;exitDy=0;entryX=0;entryY=0.5;entryDx=0;entryDy=0;" edge="1" parent="WIyWlLk6GJQsqaUBKTNV-1" source="O5qcWpgSKs4IgxdbwhYX-500" target="O5qcWpgSKs4IgxdbwhYX-490">
          <mxGeometry relative="1" as="geometry" />
        </mxCell>
        <mxCell id="0E-LU-rpmm0SCRFe6F6l-144" style="edgeStyle=orthogonalEdgeStyle;rounded=0;orthogonalLoop=1;jettySize=auto;html=1;exitX=1;exitY=0.25;exitDx=0;exitDy=0;entryX=0;entryY=0.5;entryDx=0;entryDy=0;" edge="1" parent="WIyWlLk6GJQsqaUBKTNV-1" source="O5qcWpgSKs4IgxdbwhYX-500" target="O5qcWpgSKs4IgxdbwhYX-502">
          <mxGeometry relative="1" as="geometry" />
        </mxCell>
        <mxCell id="O5qcWpgSKs4IgxdbwhYX-500" value="Statement" style="rounded=1;whiteSpace=wrap;html=1;fontSize=12;glass=0;strokeWidth=1;shadow=0;" vertex="1" parent="WIyWlLk6GJQsqaUBKTNV-1">
          <mxGeometry x="212" y="1613" width="120" height="40" as="geometry" />
        </mxCell>
        <mxCell id="O5qcWpgSKs4IgxdbwhYX-501" value="" style="edgeStyle=orthogonalEdgeStyle;rounded=0;orthogonalLoop=1;jettySize=auto;html=1;" edge="1" parent="WIyWlLk6GJQsqaUBKTNV-1" source="O5qcWpgSKs4IgxdbwhYX-502" target="O5qcWpgSKs4IgxdbwhYX-503">
          <mxGeometry relative="1" as="geometry" />
        </mxCell>
        <mxCell id="O5qcWpgSKs4IgxdbwhYX-502" value="Destiny" style="rounded=1;whiteSpace=wrap;html=1;fontSize=12;glass=0;strokeWidth=1;shadow=0;" vertex="1" parent="WIyWlLk6GJQsqaUBKTNV-1">
          <mxGeometry x="366" y="1573" width="120" height="40" as="geometry" />
        </mxCell>
        <mxCell id="0E-LU-rpmm0SCRFe6F6l-139" style="edgeStyle=orthogonalEdgeStyle;rounded=0;orthogonalLoop=1;jettySize=auto;html=1;exitX=1;exitY=0.5;exitDx=0;exitDy=0;entryX=0;entryY=0.5;entryDx=0;entryDy=0;" edge="1" parent="WIyWlLk6GJQsqaUBKTNV-1" source="O5qcWpgSKs4IgxdbwhYX-503" target="O5qcWpgSKs4IgxdbwhYX-489">
          <mxGeometry relative="1" as="geometry" />
        </mxCell>
        <mxCell id="O5qcWpgSKs4IgxdbwhYX-503" value="ID" style="rounded=1;whiteSpace=wrap;html=1;fontSize=12;glass=0;strokeWidth=1;shadow=0;" vertex="1" parent="WIyWlLk6GJQsqaUBKTNV-1">
          <mxGeometry x="506" y="1573" width="120" height="40" as="geometry" />
        </mxCell>
        <mxCell id="O5qcWpgSKs4IgxdbwhYX-513" style="edgeStyle=orthogonalEdgeStyle;rounded=0;orthogonalLoop=1;jettySize=auto;html=1;exitX=1;exitY=0.5;exitDx=0;exitDy=0;entryX=0;entryY=0.5;entryDx=0;entryDy=0;" edge="1" parent="WIyWlLk6GJQsqaUBKTNV-1" source="O5qcWpgSKs4IgxdbwhYX-504" target="O5qcWpgSKs4IgxdbwhYX-510">
          <mxGeometry relative="1" as="geometry" />
        </mxCell>
        <mxCell id="O5qcWpgSKs4IgxdbwhYX-504" value="Expression" style="rounded=1;whiteSpace=wrap;html=1;fontSize=12;glass=0;strokeWidth=1;shadow=0;" vertex="1" parent="WIyWlLk6GJQsqaUBKTNV-1">
          <mxGeometry x="366" y="1653" width="120" height="40" as="geometry" />
        </mxCell>
        <mxCell id="O5qcWpgSKs4IgxdbwhYX-509" value="" style="edgeStyle=orthogonalEdgeStyle;rounded=0;orthogonalLoop=1;jettySize=auto;html=1;" edge="1" parent="WIyWlLk6GJQsqaUBKTNV-1" source="O5qcWpgSKs4IgxdbwhYX-510" target="O5qcWpgSKs4IgxdbwhYX-511">
          <mxGeometry relative="1" as="geometry" />
        </mxCell>
        <mxCell id="O5qcWpgSKs4IgxdbwhYX-510" value="Primary" style="rounded=1;whiteSpace=wrap;html=1;fontSize=12;glass=0;strokeWidth=1;shadow=0;" vertex="1" parent="WIyWlLk6GJQsqaUBKTNV-1">
          <mxGeometry x="506" y="1653" width="120" height="40" as="geometry" />
        </mxCell>
        <mxCell id="O5qcWpgSKs4IgxdbwhYX-512" style="edgeStyle=orthogonalEdgeStyle;rounded=0;orthogonalLoop=1;jettySize=auto;html=1;exitX=1;exitY=0.5;exitDx=0;exitDy=0;entryX=0;entryY=0.5;entryDx=0;entryDy=0;" edge="1" parent="WIyWlLk6GJQsqaUBKTNV-1" source="O5qcWpgSKs4IgxdbwhYX-511" target="O5qcWpgSKs4IgxdbwhYX-491">
          <mxGeometry relative="1" as="geometry" />
        </mxCell>
        <mxCell id="O5qcWpgSKs4IgxdbwhYX-511" value="LITERAL" style="rounded=1;whiteSpace=wrap;html=1;fontSize=12;glass=0;strokeWidth=1;shadow=0;" vertex="1" parent="WIyWlLk6GJQsqaUBKTNV-1">
          <mxGeometry x="646" y="1653" width="120" height="40" as="geometry" />
        </mxCell>
        <mxCell id="0E-LU-rpmm0SCRFe6F6l-153" style="edgeStyle=orthogonalEdgeStyle;rounded=0;orthogonalLoop=1;jettySize=auto;html=1;exitX=1;exitY=0.5;exitDx=0;exitDy=0;entryX=0;entryY=0.5;entryDx=0;entryDy=0;" edge="1" parent="WIyWlLk6GJQsqaUBKTNV-1" source="O5qcWpgSKs4IgxdbwhYX-516" target="O5qcWpgSKs4IgxdbwhYX-533">
          <mxGeometry relative="1" as="geometry" />
        </mxCell>
        <mxCell id="O5qcWpgSKs4IgxdbwhYX-516" value="StatementList" style="rounded=1;whiteSpace=wrap;html=1;fontSize=12;glass=0;strokeWidth=1;shadow=0;fillColor=#008a00;fontColor=#ffffff;strokeColor=#005700;" vertex="1" parent="WIyWlLk6GJQsqaUBKTNV-1">
          <mxGeometry x="46" y="1891" width="120" height="40" as="geometry" />
        </mxCell>
        <mxCell id="O5qcWpgSKs4IgxdbwhYX-518" value="&quot;WRITE&quot;" style="rounded=1;whiteSpace=wrap;html=1;fontSize=12;glass=0;strokeWidth=1;shadow=0;fillColor=#1ba1e2;fontColor=#ffffff;strokeColor=#006EAF;" vertex="1" parent="WIyWlLk6GJQsqaUBKTNV-1">
          <mxGeometry x="340.0000000000002" y="1788.5" width="120" height="40" as="geometry" />
        </mxCell>
        <mxCell id="O5qcWpgSKs4IgxdbwhYX-519" value="&quot;(&quot;" style="rounded=1;whiteSpace=wrap;html=1;fontSize=12;glass=0;strokeWidth=1;shadow=0;fillColor=#1ba1e2;fontColor=#ffffff;strokeColor=#006EAF;" vertex="1" parent="WIyWlLk6GJQsqaUBKTNV-1">
          <mxGeometry x="340.0000000000002" y="1841.5" width="120" height="40" as="geometry" />
        </mxCell>
        <mxCell id="O5qcWpgSKs4IgxdbwhYX-520" value="&quot;Fatorial de&quot;" style="rounded=1;whiteSpace=wrap;html=1;fontSize=12;glass=0;strokeWidth=1;shadow=0;fillColor=#1ba1e2;fontColor=#ffffff;strokeColor=#006EAF;" vertex="1" parent="WIyWlLk6GJQsqaUBKTNV-1">
          <mxGeometry x="1550.0000000000002" y="1695" width="120" height="40" as="geometry" />
        </mxCell>
        <mxCell id="O5qcWpgSKs4IgxdbwhYX-521" value="&quot;)&quot;" style="rounded=1;whiteSpace=wrap;html=1;fontSize=12;glass=0;strokeWidth=1;shadow=0;fillColor=#1ba1e2;fontColor=#ffffff;strokeColor=#006EAF;" vertex="1" parent="WIyWlLk6GJQsqaUBKTNV-1">
          <mxGeometry x="1138.5000000000002" y="2056" width="120" height="40" as="geometry" />
        </mxCell>
        <mxCell id="O5qcWpgSKs4IgxdbwhYX-522" value="&quot;,&quot;" style="rounded=1;whiteSpace=wrap;html=1;fontSize=12;glass=0;strokeWidth=1;shadow=0;fillColor=#1ba1e2;fontColor=#ffffff;strokeColor=#006EAF;" vertex="1" parent="WIyWlLk6GJQsqaUBKTNV-1">
          <mxGeometry x="985.0000000000002" y="1735" width="120" height="40" as="geometry" />
        </mxCell>
        <mxCell id="O5qcWpgSKs4IgxdbwhYX-523" value="&quot;numFatorial&quot;" style="rounded=1;whiteSpace=wrap;html=1;fontSize=12;glass=0;strokeWidth=1;shadow=0;fillColor=#1ba1e2;fontColor=#ffffff;strokeColor=#006EAF;" vertex="1" parent="WIyWlLk6GJQsqaUBKTNV-1">
          <mxGeometry x="1553.0000000000002" y="1775" width="120" height="40" as="geometry" />
        </mxCell>
        <mxCell id="O5qcWpgSKs4IgxdbwhYX-524" value="&quot;,&quot;" style="rounded=1;whiteSpace=wrap;html=1;fontSize=12;glass=0;strokeWidth=1;shadow=0;fillColor=#1ba1e2;fontColor=#ffffff;strokeColor=#006EAF;" vertex="1" parent="WIyWlLk6GJQsqaUBKTNV-1">
          <mxGeometry x="829.0000000000001" y="1815" width="120" height="40" as="geometry" />
        </mxCell>
        <mxCell id="O5qcWpgSKs4IgxdbwhYX-525" value="&quot;:&quot;" style="rounded=1;whiteSpace=wrap;html=1;fontSize=12;glass=0;strokeWidth=1;shadow=0;fillColor=#1ba1e2;fontColor=#ffffff;strokeColor=#006EAF;" vertex="1" parent="WIyWlLk6GJQsqaUBKTNV-1">
          <mxGeometry x="1258.5000000000002" y="1873" width="120" height="40" as="geometry" />
        </mxCell>
        <mxCell id="O5qcWpgSKs4IgxdbwhYX-527" value="&quot;,&quot;" style="rounded=1;whiteSpace=wrap;html=1;fontSize=12;glass=0;strokeWidth=1;shadow=0;fillColor=#1ba1e2;fontColor=#ffffff;strokeColor=#006EAF;" vertex="1" parent="WIyWlLk6GJQsqaUBKTNV-1">
          <mxGeometry x="653.0000000000002" y="1891" width="120" height="40" as="geometry" />
        </mxCell>
        <mxCell id="O5qcWpgSKs4IgxdbwhYX-528" value="&quot;Fatorial&quot;" style="rounded=1;whiteSpace=wrap;html=1;fontSize=12;glass=0;strokeWidth=1;shadow=0;fillColor=#1ba1e2;fontColor=#ffffff;strokeColor=#006EAF;" vertex="1" parent="WIyWlLk6GJQsqaUBKTNV-1">
          <mxGeometry x="1284.0000000000002" y="1936" width="120" height="40" as="geometry" />
        </mxCell>
        <mxCell id="O5qcWpgSKs4IgxdbwhYX-529" value="&quot;(&quot;" style="rounded=1;whiteSpace=wrap;html=1;fontSize=12;glass=0;strokeWidth=1;shadow=0;fillColor=#1ba1e2;fontColor=#ffffff;strokeColor=#006EAF;" vertex="1" parent="WIyWlLk6GJQsqaUBKTNV-1">
          <mxGeometry x="1140.0000000000002" y="1976" width="120" height="40" as="geometry" />
        </mxCell>
        <mxCell id="O5qcWpgSKs4IgxdbwhYX-530" value="&quot;numFatorial&quot;" style="rounded=1;whiteSpace=wrap;html=1;fontSize=12;glass=0;strokeWidth=1;shadow=0;fillColor=#1ba1e2;fontColor=#ffffff;strokeColor=#006EAF;" vertex="1" parent="WIyWlLk6GJQsqaUBKTNV-1">
          <mxGeometry x="1853.5000000000002" y="2016" width="120" height="40" as="geometry" />
        </mxCell>
        <mxCell id="O5qcWpgSKs4IgxdbwhYX-531" value="&quot;)&quot;" style="rounded=1;whiteSpace=wrap;html=1;fontSize=12;glass=0;strokeWidth=1;shadow=0;fillColor=#1ba1e2;fontColor=#ffffff;strokeColor=#006EAF;" vertex="1" parent="WIyWlLk6GJQsqaUBKTNV-1">
          <mxGeometry x="340.0000000000002" y="1931" width="120" height="40" as="geometry" />
        </mxCell>
        <mxCell id="O5qcWpgSKs4IgxdbwhYX-532" value="&quot;;&quot;" style="rounded=1;whiteSpace=wrap;html=1;fontSize=12;glass=0;strokeWidth=1;shadow=0;fillColor=#1ba1e2;fontColor=#ffffff;strokeColor=#006EAF;" vertex="1" parent="WIyWlLk6GJQsqaUBKTNV-1">
          <mxGeometry x="340.0000000000002" y="1989" width="120" height="40" as="geometry" />
        </mxCell>
        <mxCell id="0E-LU-rpmm0SCRFe6F6l-154" style="edgeStyle=orthogonalEdgeStyle;rounded=0;orthogonalLoop=1;jettySize=auto;html=1;exitX=0.5;exitY=0;exitDx=0;exitDy=0;entryX=0;entryY=0.5;entryDx=0;entryDy=0;" edge="1" parent="WIyWlLk6GJQsqaUBKTNV-1" source="O5qcWpgSKs4IgxdbwhYX-533" target="O5qcWpgSKs4IgxdbwhYX-518">
          <mxGeometry relative="1" as="geometry" />
        </mxCell>
        <mxCell id="0E-LU-rpmm0SCRFe6F6l-155" style="edgeStyle=orthogonalEdgeStyle;rounded=0;orthogonalLoop=1;jettySize=auto;html=1;exitX=0.75;exitY=0;exitDx=0;exitDy=0;entryX=0;entryY=0.5;entryDx=0;entryDy=0;" edge="1" parent="WIyWlLk6GJQsqaUBKTNV-1" source="O5qcWpgSKs4IgxdbwhYX-533" target="O5qcWpgSKs4IgxdbwhYX-519">
          <mxGeometry relative="1" as="geometry" />
        </mxCell>
        <mxCell id="0E-LU-rpmm0SCRFe6F6l-162" style="edgeStyle=orthogonalEdgeStyle;rounded=0;orthogonalLoop=1;jettySize=auto;html=1;exitX=1;exitY=0.5;exitDx=0;exitDy=0;entryX=0;entryY=0.5;entryDx=0;entryDy=0;" edge="1" parent="WIyWlLk6GJQsqaUBKTNV-1" source="O5qcWpgSKs4IgxdbwhYX-533" target="O5qcWpgSKs4IgxdbwhYX-538">
          <mxGeometry relative="1" as="geometry" />
        </mxCell>
        <mxCell id="DvYviI5u5Ijabw_hEUCR-2" style="edgeStyle=orthogonalEdgeStyle;rounded=0;orthogonalLoop=1;jettySize=auto;html=1;exitX=0.75;exitY=1;exitDx=0;exitDy=0;entryX=0;entryY=0.5;entryDx=0;entryDy=0;" edge="1" parent="WIyWlLk6GJQsqaUBKTNV-1" source="O5qcWpgSKs4IgxdbwhYX-533" target="O5qcWpgSKs4IgxdbwhYX-531">
          <mxGeometry relative="1" as="geometry" />
        </mxCell>
        <mxCell id="DvYviI5u5Ijabw_hEUCR-3" style="edgeStyle=orthogonalEdgeStyle;rounded=0;orthogonalLoop=1;jettySize=auto;html=1;exitX=0.5;exitY=1;exitDx=0;exitDy=0;entryX=0;entryY=0.5;entryDx=0;entryDy=0;" edge="1" parent="WIyWlLk6GJQsqaUBKTNV-1" source="O5qcWpgSKs4IgxdbwhYX-533" target="O5qcWpgSKs4IgxdbwhYX-532">
          <mxGeometry relative="1" as="geometry" />
        </mxCell>
        <mxCell id="O5qcWpgSKs4IgxdbwhYX-533" value="Statement" style="rounded=1;whiteSpace=wrap;html=1;fontSize=12;glass=0;strokeWidth=1;shadow=0;" vertex="1" parent="WIyWlLk6GJQsqaUBKTNV-1">
          <mxGeometry x="212" y="1891" width="120" height="40" as="geometry" />
        </mxCell>
        <mxCell id="0E-LU-rpmm0SCRFe6F6l-181" style="edgeStyle=orthogonalEdgeStyle;rounded=0;orthogonalLoop=1;jettySize=auto;html=1;exitX=1;exitY=0.25;exitDx=0;exitDy=0;entryX=0;entryY=0.5;entryDx=0;entryDy=0;" edge="1" parent="WIyWlLk6GJQsqaUBKTNV-1" source="O5qcWpgSKs4IgxdbwhYX-538" target="O5qcWpgSKs4IgxdbwhYX-548">
          <mxGeometry relative="1" as="geometry" />
        </mxCell>
        <mxCell id="0E-LU-rpmm0SCRFe6F6l-182" style="edgeStyle=orthogonalEdgeStyle;rounded=0;orthogonalLoop=1;jettySize=auto;html=1;exitX=1;exitY=0.5;exitDx=0;exitDy=0;entryX=0;entryY=0.5;entryDx=0;entryDy=0;" edge="1" parent="WIyWlLk6GJQsqaUBKTNV-1" source="O5qcWpgSKs4IgxdbwhYX-538" target="O5qcWpgSKs4IgxdbwhYX-527">
          <mxGeometry relative="1" as="geometry" />
        </mxCell>
        <mxCell id="0E-LU-rpmm0SCRFe6F6l-195" style="edgeStyle=orthogonalEdgeStyle;rounded=0;orthogonalLoop=1;jettySize=auto;html=1;exitX=1;exitY=0.75;exitDx=0;exitDy=0;entryX=0;entryY=0.5;entryDx=0;entryDy=0;" edge="1" parent="WIyWlLk6GJQsqaUBKTNV-1" source="O5qcWpgSKs4IgxdbwhYX-538" target="O5qcWpgSKs4IgxdbwhYX-553">
          <mxGeometry relative="1" as="geometry" />
        </mxCell>
        <mxCell id="O5qcWpgSKs4IgxdbwhYX-538" value="ExpressionList" style="rounded=1;whiteSpace=wrap;html=1;fontSize=12;glass=0;strokeWidth=1;shadow=0;" vertex="1" parent="WIyWlLk6GJQsqaUBKTNV-1">
          <mxGeometry x="490" y="1891" width="120" height="40" as="geometry" />
        </mxCell>
        <mxCell id="0E-LU-rpmm0SCRFe6F6l-165" style="edgeStyle=orthogonalEdgeStyle;rounded=0;orthogonalLoop=1;jettySize=auto;html=1;exitX=1;exitY=0.25;exitDx=0;exitDy=0;entryX=0;entryY=0.5;entryDx=0;entryDy=0;" edge="1" parent="WIyWlLk6GJQsqaUBKTNV-1" source="O5qcWpgSKs4IgxdbwhYX-548" target="O5qcWpgSKs4IgxdbwhYX-560">
          <mxGeometry relative="1" as="geometry" />
        </mxCell>
        <mxCell id="0E-LU-rpmm0SCRFe6F6l-178" style="edgeStyle=orthogonalEdgeStyle;rounded=0;orthogonalLoop=1;jettySize=auto;html=1;exitX=1;exitY=0.75;exitDx=0;exitDy=0;entryX=0;entryY=0.5;entryDx=0;entryDy=0;" edge="1" parent="WIyWlLk6GJQsqaUBKTNV-1" source="O5qcWpgSKs4IgxdbwhYX-548" target="O5qcWpgSKs4IgxdbwhYX-561">
          <mxGeometry relative="1" as="geometry" />
        </mxCell>
        <mxCell id="0E-LU-rpmm0SCRFe6F6l-179" style="edgeStyle=orthogonalEdgeStyle;rounded=0;orthogonalLoop=1;jettySize=auto;html=1;exitX=1;exitY=0.5;exitDx=0;exitDy=0;entryX=0;entryY=0.5;entryDx=0;entryDy=0;" edge="1" parent="WIyWlLk6GJQsqaUBKTNV-1" source="O5qcWpgSKs4IgxdbwhYX-548" target="O5qcWpgSKs4IgxdbwhYX-524">
          <mxGeometry relative="1" as="geometry" />
        </mxCell>
        <mxCell id="O5qcWpgSKs4IgxdbwhYX-548" value="ExpressionList" style="rounded=1;whiteSpace=wrap;html=1;fontSize=12;glass=0;strokeWidth=1;shadow=0;" vertex="1" parent="WIyWlLk6GJQsqaUBKTNV-1">
          <mxGeometry x="653" y="1815" width="120" height="40" as="geometry" />
        </mxCell>
        <mxCell id="WOss_ckVHwlz0GYuxbEu-66" value="" style="edgeStyle=orthogonalEdgeStyle;rounded=0;orthogonalLoop=1;jettySize=auto;html=1;" edge="1" parent="WIyWlLk6GJQsqaUBKTNV-1" source="O5qcWpgSKs4IgxdbwhYX-553" target="WOss_ckVHwlz0GYuxbEu-65">
          <mxGeometry relative="1" as="geometry" />
        </mxCell>
        <mxCell id="O5qcWpgSKs4IgxdbwhYX-553" value="Expression" style="rounded=1;whiteSpace=wrap;html=1;fontSize=12;glass=0;strokeWidth=1;shadow=0;" vertex="1" parent="WIyWlLk6GJQsqaUBKTNV-1">
          <mxGeometry x="653" y="1976" width="120" height="40" as="geometry" />
        </mxCell>
        <mxCell id="0E-LU-rpmm0SCRFe6F6l-173" style="edgeStyle=orthogonalEdgeStyle;rounded=0;orthogonalLoop=1;jettySize=auto;html=1;exitX=1;exitY=0;exitDx=0;exitDy=0;entryX=0;entryY=0.5;entryDx=0;entryDy=0;" edge="1" parent="WIyWlLk6GJQsqaUBKTNV-1" source="O5qcWpgSKs4IgxdbwhYX-560" target="O5qcWpgSKs4IgxdbwhYX-562">
          <mxGeometry relative="1" as="geometry" />
        </mxCell>
        <mxCell id="0E-LU-rpmm0SCRFe6F6l-174" style="edgeStyle=orthogonalEdgeStyle;rounded=0;orthogonalLoop=1;jettySize=auto;html=1;exitX=1;exitY=0.5;exitDx=0;exitDy=0;entryX=0;entryY=0.5;entryDx=0;entryDy=0;" edge="1" parent="WIyWlLk6GJQsqaUBKTNV-1" source="O5qcWpgSKs4IgxdbwhYX-560" target="O5qcWpgSKs4IgxdbwhYX-522">
          <mxGeometry relative="1" as="geometry" />
        </mxCell>
        <mxCell id="0E-LU-rpmm0SCRFe6F6l-175" style="edgeStyle=orthogonalEdgeStyle;rounded=0;orthogonalLoop=1;jettySize=auto;html=1;exitX=1;exitY=1;exitDx=0;exitDy=0;entryX=0;entryY=0.5;entryDx=0;entryDy=0;" edge="1" parent="WIyWlLk6GJQsqaUBKTNV-1" source="O5qcWpgSKs4IgxdbwhYX-560" target="O5qcWpgSKs4IgxdbwhYX-563">
          <mxGeometry relative="1" as="geometry" />
        </mxCell>
        <mxCell id="O5qcWpgSKs4IgxdbwhYX-560" value="ExpressionList" style="rounded=1;whiteSpace=wrap;html=1;fontSize=12;glass=0;strokeWidth=1;shadow=0;" vertex="1" parent="WIyWlLk6GJQsqaUBKTNV-1">
          <mxGeometry x="829" y="1735" width="120" height="40" as="geometry" />
        </mxCell>
        <mxCell id="0E-LU-rpmm0SCRFe6F6l-180" style="edgeStyle=orthogonalEdgeStyle;rounded=0;orthogonalLoop=1;jettySize=auto;html=1;exitX=1;exitY=0.5;exitDx=0;exitDy=0;entryX=0;entryY=0.5;entryDx=0;entryDy=0;" edge="1" parent="WIyWlLk6GJQsqaUBKTNV-1" source="O5qcWpgSKs4IgxdbwhYX-561" target="O5qcWpgSKs4IgxdbwhYX-586">
          <mxGeometry relative="1" as="geometry" />
        </mxCell>
        <mxCell id="O5qcWpgSKs4IgxdbwhYX-561" value="Expression" style="rounded=1;whiteSpace=wrap;html=1;fontSize=12;glass=0;strokeWidth=1;shadow=0;" vertex="1" parent="WIyWlLk6GJQsqaUBKTNV-1">
          <mxGeometry x="829" y="1873" width="120" height="40" as="geometry" />
        </mxCell>
        <mxCell id="O5qcWpgSKs4IgxdbwhYX-565" value="" style="edgeStyle=orthogonalEdgeStyle;rounded=0;orthogonalLoop=1;jettySize=auto;html=1;" edge="1" parent="WIyWlLk6GJQsqaUBKTNV-1" source="O5qcWpgSKs4IgxdbwhYX-562" target="O5qcWpgSKs4IgxdbwhYX-564">
          <mxGeometry relative="1" as="geometry" />
        </mxCell>
        <mxCell id="O5qcWpgSKs4IgxdbwhYX-562" value="ExpressionList" style="rounded=1;whiteSpace=wrap;html=1;fontSize=12;glass=0;strokeWidth=1;shadow=0;" vertex="1" parent="WIyWlLk6GJQsqaUBKTNV-1">
          <mxGeometry x="985" y="1695" width="120" height="40" as="geometry" />
        </mxCell>
        <mxCell id="O5qcWpgSKs4IgxdbwhYX-576" style="edgeStyle=orthogonalEdgeStyle;rounded=0;orthogonalLoop=1;jettySize=auto;html=1;exitX=1;exitY=0.5;exitDx=0;exitDy=0;entryX=0;entryY=0.5;entryDx=0;entryDy=0;" edge="1" parent="WIyWlLk6GJQsqaUBKTNV-1" source="O5qcWpgSKs4IgxdbwhYX-563" target="O5qcWpgSKs4IgxdbwhYX-575">
          <mxGeometry relative="1" as="geometry" />
        </mxCell>
        <mxCell id="O5qcWpgSKs4IgxdbwhYX-563" value="Expression" style="rounded=1;whiteSpace=wrap;html=1;fontSize=12;glass=0;strokeWidth=1;shadow=0;" vertex="1" parent="WIyWlLk6GJQsqaUBKTNV-1">
          <mxGeometry x="985" y="1775" width="120" height="40" as="geometry" />
        </mxCell>
        <mxCell id="O5qcWpgSKs4IgxdbwhYX-567" value="" style="edgeStyle=orthogonalEdgeStyle;rounded=0;orthogonalLoop=1;jettySize=auto;html=1;" edge="1" parent="WIyWlLk6GJQsqaUBKTNV-1" source="O5qcWpgSKs4IgxdbwhYX-564" target="O5qcWpgSKs4IgxdbwhYX-566">
          <mxGeometry relative="1" as="geometry" />
        </mxCell>
        <mxCell id="O5qcWpgSKs4IgxdbwhYX-564" value="Expression" style="rounded=1;whiteSpace=wrap;html=1;fontSize=12;glass=0;strokeWidth=1;shadow=0;" vertex="1" parent="WIyWlLk6GJQsqaUBKTNV-1">
          <mxGeometry x="1125.0000000000002" y="1695" width="120" height="40" as="geometry" />
        </mxCell>
        <mxCell id="O5qcWpgSKs4IgxdbwhYX-569" value="" style="edgeStyle=orthogonalEdgeStyle;rounded=0;orthogonalLoop=1;jettySize=auto;html=1;" edge="1" parent="WIyWlLk6GJQsqaUBKTNV-1" source="O5qcWpgSKs4IgxdbwhYX-566" target="O5qcWpgSKs4IgxdbwhYX-568">
          <mxGeometry relative="1" as="geometry" />
        </mxCell>
        <mxCell id="O5qcWpgSKs4IgxdbwhYX-566" value="Primary" style="rounded=1;whiteSpace=wrap;html=1;fontSize=12;glass=0;strokeWidth=1;shadow=0;" vertex="1" parent="WIyWlLk6GJQsqaUBKTNV-1">
          <mxGeometry x="1265.0000000000002" y="1695" width="120" height="40" as="geometry" />
        </mxCell>
        <mxCell id="O5qcWpgSKs4IgxdbwhYX-570" style="edgeStyle=orthogonalEdgeStyle;rounded=0;orthogonalLoop=1;jettySize=auto;html=1;exitX=1;exitY=0.5;exitDx=0;exitDy=0;entryX=0;entryY=0.5;entryDx=0;entryDy=0;" edge="1" parent="WIyWlLk6GJQsqaUBKTNV-1" source="O5qcWpgSKs4IgxdbwhYX-568" target="O5qcWpgSKs4IgxdbwhYX-520">
          <mxGeometry relative="1" as="geometry" />
        </mxCell>
        <mxCell id="O5qcWpgSKs4IgxdbwhYX-568" value="&quot;LITERAL&quot;" style="rounded=1;whiteSpace=wrap;html=1;fontSize=12;glass=0;strokeWidth=1;shadow=0;" vertex="1" parent="WIyWlLk6GJQsqaUBKTNV-1">
          <mxGeometry x="1408.0000000000002" y="1695" width="120" height="40" as="geometry" />
        </mxCell>
        <mxCell id="O5qcWpgSKs4IgxdbwhYX-578" value="" style="edgeStyle=orthogonalEdgeStyle;rounded=0;orthogonalLoop=1;jettySize=auto;html=1;" edge="1" parent="WIyWlLk6GJQsqaUBKTNV-1" source="O5qcWpgSKs4IgxdbwhYX-575" target="O5qcWpgSKs4IgxdbwhYX-577">
          <mxGeometry relative="1" as="geometry" />
        </mxCell>
        <mxCell id="O5qcWpgSKs4IgxdbwhYX-575" value="Primary" style="rounded=1;whiteSpace=wrap;html=1;fontSize=12;glass=0;strokeWidth=1;shadow=0;" vertex="1" parent="WIyWlLk6GJQsqaUBKTNV-1">
          <mxGeometry x="1127.0000000000002" y="1775" width="120" height="40" as="geometry" />
        </mxCell>
        <mxCell id="O5qcWpgSKs4IgxdbwhYX-580" value="" style="edgeStyle=orthogonalEdgeStyle;rounded=0;orthogonalLoop=1;jettySize=auto;html=1;" edge="1" parent="WIyWlLk6GJQsqaUBKTNV-1" source="O5qcWpgSKs4IgxdbwhYX-577" target="O5qcWpgSKs4IgxdbwhYX-579">
          <mxGeometry relative="1" as="geometry" />
        </mxCell>
        <mxCell id="O5qcWpgSKs4IgxdbwhYX-577" value="Name" style="rounded=1;whiteSpace=wrap;html=1;fontSize=12;glass=0;strokeWidth=1;shadow=0;" vertex="1" parent="WIyWlLk6GJQsqaUBKTNV-1">
          <mxGeometry x="1267.0000000000002" y="1775" width="120" height="40" as="geometry" />
        </mxCell>
        <mxCell id="O5qcWpgSKs4IgxdbwhYX-581" style="edgeStyle=orthogonalEdgeStyle;rounded=0;orthogonalLoop=1;jettySize=auto;html=1;exitX=1;exitY=0.5;exitDx=0;exitDy=0;entryX=0;entryY=0.5;entryDx=0;entryDy=0;" edge="1" parent="WIyWlLk6GJQsqaUBKTNV-1" source="O5qcWpgSKs4IgxdbwhYX-579" target="O5qcWpgSKs4IgxdbwhYX-523">
          <mxGeometry relative="1" as="geometry" />
        </mxCell>
        <mxCell id="O5qcWpgSKs4IgxdbwhYX-579" value="ID" style="rounded=1;whiteSpace=wrap;html=1;fontSize=12;glass=0;strokeWidth=1;shadow=0;" vertex="1" parent="WIyWlLk6GJQsqaUBKTNV-1">
          <mxGeometry x="1410.0000000000002" y="1775" width="120" height="40" as="geometry" />
        </mxCell>
        <mxCell id="O5qcWpgSKs4IgxdbwhYX-585" value="" style="edgeStyle=orthogonalEdgeStyle;rounded=0;orthogonalLoop=1;jettySize=auto;html=1;" edge="1" parent="WIyWlLk6GJQsqaUBKTNV-1" source="O5qcWpgSKs4IgxdbwhYX-586" target="O5qcWpgSKs4IgxdbwhYX-587">
          <mxGeometry relative="1" as="geometry" />
        </mxCell>
        <mxCell id="O5qcWpgSKs4IgxdbwhYX-586" value="Primary" style="rounded=1;whiteSpace=wrap;html=1;fontSize=12;glass=0;strokeWidth=1;shadow=0;" vertex="1" parent="WIyWlLk6GJQsqaUBKTNV-1">
          <mxGeometry x="973.5000000000002" y="1873" width="120" height="40" as="geometry" />
        </mxCell>
        <mxCell id="O5qcWpgSKs4IgxdbwhYX-589" style="edgeStyle=orthogonalEdgeStyle;rounded=0;orthogonalLoop=1;jettySize=auto;html=1;exitX=1;exitY=0.5;exitDx=0;exitDy=0;entryX=0;entryY=0.5;entryDx=0;entryDy=0;" edge="1" parent="WIyWlLk6GJQsqaUBKTNV-1" source="O5qcWpgSKs4IgxdbwhYX-587" target="O5qcWpgSKs4IgxdbwhYX-525">
          <mxGeometry relative="1" as="geometry" />
        </mxCell>
        <mxCell id="O5qcWpgSKs4IgxdbwhYX-587" value="&quot;LITERAL&quot;" style="rounded=1;whiteSpace=wrap;html=1;fontSize=12;glass=0;strokeWidth=1;shadow=0;" vertex="1" parent="WIyWlLk6GJQsqaUBKTNV-1">
          <mxGeometry x="1116.5000000000002" y="1873" width="120" height="40" as="geometry" />
        </mxCell>
        <mxCell id="0E-LU-rpmm0SCRFe6F6l-190" style="edgeStyle=orthogonalEdgeStyle;rounded=0;orthogonalLoop=1;jettySize=auto;html=1;exitX=1;exitY=0.25;exitDx=0;exitDy=0;entryX=0;entryY=0.5;entryDx=0;entryDy=0;" edge="1" parent="WIyWlLk6GJQsqaUBKTNV-1" source="O5qcWpgSKs4IgxdbwhYX-591" target="O5qcWpgSKs4IgxdbwhYX-593">
          <mxGeometry relative="1" as="geometry" />
        </mxCell>
        <mxCell id="0E-LU-rpmm0SCRFe6F6l-191" style="edgeStyle=orthogonalEdgeStyle;rounded=0;orthogonalLoop=1;jettySize=auto;html=1;exitX=1;exitY=0.5;exitDx=0;exitDy=0;entryX=0;entryY=0.5;entryDx=0;entryDy=0;" edge="1" parent="WIyWlLk6GJQsqaUBKTNV-1" source="O5qcWpgSKs4IgxdbwhYX-591" target="O5qcWpgSKs4IgxdbwhYX-529">
          <mxGeometry relative="1" as="geometry" />
        </mxCell>
        <mxCell id="0E-LU-rpmm0SCRFe6F6l-192" style="edgeStyle=orthogonalEdgeStyle;rounded=0;orthogonalLoop=1;jettySize=auto;html=1;exitX=1;exitY=0.75;exitDx=0;exitDy=0;entryX=0;entryY=0.5;entryDx=0;entryDy=0;" edge="1" parent="WIyWlLk6GJQsqaUBKTNV-1" source="O5qcWpgSKs4IgxdbwhYX-591" target="O5qcWpgSKs4IgxdbwhYX-600">
          <mxGeometry relative="1" as="geometry" />
        </mxCell>
        <mxCell id="0E-LU-rpmm0SCRFe6F6l-194" style="edgeStyle=orthogonalEdgeStyle;rounded=0;orthogonalLoop=1;jettySize=auto;html=1;exitX=0.75;exitY=1;exitDx=0;exitDy=0;entryX=0;entryY=0.5;entryDx=0;entryDy=0;" edge="1" parent="WIyWlLk6GJQsqaUBKTNV-1" source="O5qcWpgSKs4IgxdbwhYX-591" target="O5qcWpgSKs4IgxdbwhYX-521">
          <mxGeometry relative="1" as="geometry" />
        </mxCell>
        <mxCell id="O5qcWpgSKs4IgxdbwhYX-591" value="Calfunc" style="rounded=1;whiteSpace=wrap;html=1;fontSize=12;glass=0;strokeWidth=1;shadow=0;" vertex="1" parent="WIyWlLk6GJQsqaUBKTNV-1">
          <mxGeometry x="977.5" y="1976" width="120" height="40" as="geometry" />
        </mxCell>
        <mxCell id="0E-LU-rpmm0SCRFe6F6l-187" style="edgeStyle=orthogonalEdgeStyle;rounded=0;orthogonalLoop=1;jettySize=auto;html=1;exitX=1;exitY=0.5;exitDx=0;exitDy=0;entryX=0;entryY=0.5;entryDx=0;entryDy=0;" edge="1" parent="WIyWlLk6GJQsqaUBKTNV-1" source="O5qcWpgSKs4IgxdbwhYX-593" target="O5qcWpgSKs4IgxdbwhYX-528">
          <mxGeometry relative="1" as="geometry" />
        </mxCell>
        <mxCell id="O5qcWpgSKs4IgxdbwhYX-593" value="ID" style="rounded=1;whiteSpace=wrap;html=1;fontSize=12;glass=0;strokeWidth=1;shadow=0;" vertex="1" parent="WIyWlLk6GJQsqaUBKTNV-1">
          <mxGeometry x="1140.0000000000002" y="1936" width="120" height="40" as="geometry" />
        </mxCell>
        <mxCell id="0E-LU-rpmm0SCRFe6F6l-188" style="edgeStyle=orthogonalEdgeStyle;rounded=0;orthogonalLoop=1;jettySize=auto;html=1;exitX=1;exitY=0.5;exitDx=0;exitDy=0;entryX=0;entryY=0.5;entryDx=0;entryDy=0;" edge="1" parent="WIyWlLk6GJQsqaUBKTNV-1" source="O5qcWpgSKs4IgxdbwhYX-600" target="O5qcWpgSKs4IgxdbwhYX-602">
          <mxGeometry relative="1" as="geometry" />
        </mxCell>
        <mxCell id="O5qcWpgSKs4IgxdbwhYX-600" value="ExpressionList" style="rounded=1;whiteSpace=wrap;html=1;fontSize=12;glass=0;strokeWidth=1;shadow=0;" vertex="1" parent="WIyWlLk6GJQsqaUBKTNV-1">
          <mxGeometry x="1140" y="2016" width="120" height="40" as="geometry" />
        </mxCell>
        <mxCell id="O5qcWpgSKs4IgxdbwhYX-605" value="" style="edgeStyle=orthogonalEdgeStyle;rounded=0;orthogonalLoop=1;jettySize=auto;html=1;" edge="1" parent="WIyWlLk6GJQsqaUBKTNV-1" source="O5qcWpgSKs4IgxdbwhYX-602" target="O5qcWpgSKs4IgxdbwhYX-604">
          <mxGeometry relative="1" as="geometry" />
        </mxCell>
        <mxCell id="O5qcWpgSKs4IgxdbwhYX-602" value="Expression" style="rounded=1;whiteSpace=wrap;html=1;fontSize=12;glass=0;strokeWidth=1;shadow=0;" vertex="1" parent="WIyWlLk6GJQsqaUBKTNV-1">
          <mxGeometry x="1282.5000000000002" y="2016" width="120" height="40" as="geometry" />
        </mxCell>
        <mxCell id="0E-LU-rpmm0SCRFe6F6l-184" style="edgeStyle=orthogonalEdgeStyle;rounded=0;orthogonalLoop=1;jettySize=auto;html=1;exitX=1;exitY=0.5;exitDx=0;exitDy=0;" edge="1" parent="WIyWlLk6GJQsqaUBKTNV-1" source="O5qcWpgSKs4IgxdbwhYX-604" target="O5qcWpgSKs4IgxdbwhYX-606">
          <mxGeometry relative="1" as="geometry" />
        </mxCell>
        <mxCell id="O5qcWpgSKs4IgxdbwhYX-604" value="Primary" style="rounded=1;whiteSpace=wrap;html=1;fontSize=12;glass=0;strokeWidth=1;shadow=0;" vertex="1" parent="WIyWlLk6GJQsqaUBKTNV-1">
          <mxGeometry x="1423.5000000000002" y="2016" width="120" height="40" as="geometry" />
        </mxCell>
        <mxCell id="O5qcWpgSKs4IgxdbwhYX-609" value="" style="edgeStyle=orthogonalEdgeStyle;rounded=0;orthogonalLoop=1;jettySize=auto;html=1;" edge="1" parent="WIyWlLk6GJQsqaUBKTNV-1" source="O5qcWpgSKs4IgxdbwhYX-606" target="O5qcWpgSKs4IgxdbwhYX-608">
          <mxGeometry relative="1" as="geometry" />
        </mxCell>
        <mxCell id="O5qcWpgSKs4IgxdbwhYX-606" value="Name" style="rounded=1;whiteSpace=wrap;html=1;fontSize=12;glass=0;strokeWidth=1;shadow=0;" vertex="1" parent="WIyWlLk6GJQsqaUBKTNV-1">
          <mxGeometry x="1567.5000000000002" y="2016" width="120" height="40" as="geometry" />
        </mxCell>
        <mxCell id="0E-LU-rpmm0SCRFe6F6l-185" style="edgeStyle=orthogonalEdgeStyle;rounded=0;orthogonalLoop=1;jettySize=auto;html=1;exitX=1;exitY=0.5;exitDx=0;exitDy=0;entryX=0;entryY=0.5;entryDx=0;entryDy=0;" edge="1" parent="WIyWlLk6GJQsqaUBKTNV-1" source="O5qcWpgSKs4IgxdbwhYX-608" target="O5qcWpgSKs4IgxdbwhYX-530">
          <mxGeometry relative="1" as="geometry" />
        </mxCell>
        <mxCell id="O5qcWpgSKs4IgxdbwhYX-608" value="ID" style="rounded=1;whiteSpace=wrap;html=1;fontSize=12;glass=0;strokeWidth=1;shadow=0;" vertex="1" parent="WIyWlLk6GJQsqaUBKTNV-1">
          <mxGeometry x="1710.5000000000002" y="2016" width="120" height="40" as="geometry" />
        </mxCell>
        <mxCell id="0E-LU-rpmm0SCRFe6F6l-87" value="&quot;(&quot;" style="rounded=1;whiteSpace=wrap;html=1;fontSize=12;glass=0;strokeWidth=1;shadow=0;fillColor=#1ba1e2;fontColor=#ffffff;strokeColor=#006EAF;" vertex="1" parent="WIyWlLk6GJQsqaUBKTNV-1">
          <mxGeometry x="1581.5" y="1342" width="120" height="40" as="geometry" />
        </mxCell>
        <mxCell id="0E-LU-rpmm0SCRFe6F6l-88" value="&quot;n&quot;" style="rounded=1;whiteSpace=wrap;html=1;fontSize=12;glass=0;strokeWidth=1;shadow=0;fillColor=#1ba1e2;fontColor=#ffffff;strokeColor=#006EAF;" vertex="1" parent="WIyWlLk6GJQsqaUBKTNV-1">
          <mxGeometry x="2441.5" y="1342" width="120" height="40" as="geometry" />
        </mxCell>
        <mxCell id="0E-LU-rpmm0SCRFe6F6l-89" value="&quot;-&quot;" style="rounded=1;whiteSpace=wrap;html=1;fontSize=12;glass=0;strokeWidth=1;shadow=0;fillColor=#1ba1e2;fontColor=#ffffff;strokeColor=#006EAF;" vertex="1" parent="WIyWlLk6GJQsqaUBKTNV-1">
          <mxGeometry x="2014.5" y="1382" width="120" height="40" as="geometry" />
        </mxCell>
        <mxCell id="0E-LU-rpmm0SCRFe6F6l-90" value="&quot;1&quot;" style="rounded=1;whiteSpace=wrap;html=1;fontSize=12;glass=0;strokeWidth=1;shadow=0;fillColor=#1ba1e2;fontColor=#ffffff;strokeColor=#006EAF;" vertex="1" parent="WIyWlLk6GJQsqaUBKTNV-1">
          <mxGeometry x="2301.5" y="1422" width="120" height="40" as="geometry" />
        </mxCell>
        <mxCell id="0E-LU-rpmm0SCRFe6F6l-91" value="&quot;)&quot;" style="rounded=1;whiteSpace=wrap;html=1;fontSize=12;glass=0;strokeWidth=1;shadow=0;fillColor=#1ba1e2;fontColor=#ffffff;strokeColor=#006EAF;" vertex="1" parent="WIyWlLk6GJQsqaUBKTNV-1">
          <mxGeometry x="1581.5" y="1422" width="120" height="40" as="geometry" />
        </mxCell>
        <mxCell id="0E-LU-rpmm0SCRFe6F6l-92" style="edgeStyle=orthogonalEdgeStyle;rounded=0;orthogonalLoop=1;jettySize=auto;html=1;exitX=1;exitY=0.5;exitDx=0;exitDy=0;entryX=0;entryY=0.5;entryDx=0;entryDy=0;" edge="1" parent="WIyWlLk6GJQsqaUBKTNV-1" source="0E-LU-rpmm0SCRFe6F6l-93" target="0E-LU-rpmm0SCRFe6F6l-101">
          <mxGeometry relative="1" as="geometry" />
        </mxCell>
        <mxCell id="0E-LU-rpmm0SCRFe6F6l-93" value="ExpressionList" style="rounded=1;whiteSpace=wrap;html=1;fontSize=12;glass=0;strokeWidth=1;shadow=0;" vertex="1" parent="WIyWlLk6GJQsqaUBKTNV-1">
          <mxGeometry x="1581.5" y="1382" width="120" height="40" as="geometry" />
        </mxCell>
        <mxCell id="0E-LU-rpmm0SCRFe6F6l-94" style="edgeStyle=orthogonalEdgeStyle;rounded=0;orthogonalLoop=1;jettySize=auto;html=1;exitX=1;exitY=0.5;exitDx=0;exitDy=0;entryX=0;entryY=0.5;entryDx=0;entryDy=0;" edge="1" parent="WIyWlLk6GJQsqaUBKTNV-1" source="0E-LU-rpmm0SCRFe6F6l-95" target="0E-LU-rpmm0SCRFe6F6l-103">
          <mxGeometry relative="1" as="geometry" />
        </mxCell>
        <mxCell id="0E-LU-rpmm0SCRFe6F6l-95" value="Expression" style="rounded=1;whiteSpace=wrap;html=1;fontSize=12;glass=0;strokeWidth=1;shadow=0;" vertex="1" parent="WIyWlLk6GJQsqaUBKTNV-1">
          <mxGeometry x="1872.5" y="1342" width="120" height="40" as="geometry" />
        </mxCell>
        <mxCell id="0E-LU-rpmm0SCRFe6F6l-96" style="edgeStyle=orthogonalEdgeStyle;rounded=0;orthogonalLoop=1;jettySize=auto;html=1;exitX=1;exitY=0.5;exitDx=0;exitDy=0;entryX=0;entryY=0.5;entryDx=0;entryDy=0;" edge="1" parent="WIyWlLk6GJQsqaUBKTNV-1" source="0E-LU-rpmm0SCRFe6F6l-97" target="0E-LU-rpmm0SCRFe6F6l-89">
          <mxGeometry relative="1" as="geometry" />
        </mxCell>
        <mxCell id="0E-LU-rpmm0SCRFe6F6l-97" value="BinOp" style="rounded=1;whiteSpace=wrap;html=1;fontSize=12;glass=0;strokeWidth=1;shadow=0;" vertex="1" parent="WIyWlLk6GJQsqaUBKTNV-1">
          <mxGeometry x="1872.5" y="1382" width="120" height="40" as="geometry" />
        </mxCell>
        <mxCell id="0E-LU-rpmm0SCRFe6F6l-98" style="edgeStyle=orthogonalEdgeStyle;rounded=0;orthogonalLoop=1;jettySize=auto;html=1;exitX=1;exitY=0.5;exitDx=0;exitDy=0;entryX=0;entryY=0.5;entryDx=0;entryDy=0;" edge="1" parent="WIyWlLk6GJQsqaUBKTNV-1" source="0E-LU-rpmm0SCRFe6F6l-99" target="0E-LU-rpmm0SCRFe6F6l-109">
          <mxGeometry relative="1" as="geometry" />
        </mxCell>
        <mxCell id="0E-LU-rpmm0SCRFe6F6l-99" value="Expression" style="rounded=1;whiteSpace=wrap;html=1;fontSize=12;glass=0;strokeWidth=1;shadow=0;" vertex="1" parent="WIyWlLk6GJQsqaUBKTNV-1">
          <mxGeometry x="1872.5" y="1422" width="120" height="40" as="geometry" />
        </mxCell>
        <mxCell id="0E-LU-rpmm0SCRFe6F6l-100" style="edgeStyle=orthogonalEdgeStyle;rounded=0;orthogonalLoop=1;jettySize=auto;html=1;exitX=1;exitY=0.5;exitDx=0;exitDy=0;entryX=0;entryY=0.5;entryDx=0;entryDy=0;" edge="1" parent="WIyWlLk6GJQsqaUBKTNV-1" source="0E-LU-rpmm0SCRFe6F6l-101" target="0E-LU-rpmm0SCRFe6F6l-97">
          <mxGeometry relative="1" as="geometry" />
        </mxCell>
        <mxCell id="0E-LU-rpmm0SCRFe6F6l-101" value="Expression" style="rounded=1;whiteSpace=wrap;html=1;fontSize=12;glass=0;strokeWidth=1;shadow=0;" vertex="1" parent="WIyWlLk6GJQsqaUBKTNV-1">
          <mxGeometry x="1726.5" y="1382" width="120" height="40" as="geometry" />
        </mxCell>
        <mxCell id="0E-LU-rpmm0SCRFe6F6l-102" value="" style="edgeStyle=orthogonalEdgeStyle;rounded=0;orthogonalLoop=1;jettySize=auto;html=1;" edge="1" parent="WIyWlLk6GJQsqaUBKTNV-1" source="0E-LU-rpmm0SCRFe6F6l-103" target="0E-LU-rpmm0SCRFe6F6l-105">
          <mxGeometry relative="1" as="geometry" />
        </mxCell>
        <mxCell id="0E-LU-rpmm0SCRFe6F6l-103" value="Primary" style="rounded=1;whiteSpace=wrap;html=1;fontSize=12;glass=0;strokeWidth=1;shadow=0;" vertex="1" parent="WIyWlLk6GJQsqaUBKTNV-1">
          <mxGeometry x="2014.5" y="1342" width="120" height="40" as="geometry" />
        </mxCell>
        <mxCell id="0E-LU-rpmm0SCRFe6F6l-104" value="" style="edgeStyle=orthogonalEdgeStyle;rounded=0;orthogonalLoop=1;jettySize=auto;html=1;" edge="1" parent="WIyWlLk6GJQsqaUBKTNV-1" source="0E-LU-rpmm0SCRFe6F6l-105" target="0E-LU-rpmm0SCRFe6F6l-107">
          <mxGeometry relative="1" as="geometry" />
        </mxCell>
        <mxCell id="0E-LU-rpmm0SCRFe6F6l-105" value="Name" style="rounded=1;whiteSpace=wrap;html=1;fontSize=12;glass=0;strokeWidth=1;shadow=0;" vertex="1" parent="WIyWlLk6GJQsqaUBKTNV-1">
          <mxGeometry x="2161.5" y="1342" width="120" height="40" as="geometry" />
        </mxCell>
        <mxCell id="0E-LU-rpmm0SCRFe6F6l-106" style="edgeStyle=orthogonalEdgeStyle;rounded=0;orthogonalLoop=1;jettySize=auto;html=1;exitX=1;exitY=0.5;exitDx=0;exitDy=0;entryX=0;entryY=0.5;entryDx=0;entryDy=0;" edge="1" parent="WIyWlLk6GJQsqaUBKTNV-1" source="0E-LU-rpmm0SCRFe6F6l-107" target="0E-LU-rpmm0SCRFe6F6l-88">
          <mxGeometry relative="1" as="geometry" />
        </mxCell>
        <mxCell id="0E-LU-rpmm0SCRFe6F6l-107" value="ID" style="rounded=1;whiteSpace=wrap;html=1;fontSize=12;glass=0;strokeWidth=1;shadow=0;" vertex="1" parent="WIyWlLk6GJQsqaUBKTNV-1">
          <mxGeometry x="2301.5" y="1342" width="120" height="40" as="geometry" />
        </mxCell>
        <mxCell id="0E-LU-rpmm0SCRFe6F6l-108" value="" style="edgeStyle=orthogonalEdgeStyle;rounded=0;orthogonalLoop=1;jettySize=auto;html=1;" edge="1" parent="WIyWlLk6GJQsqaUBKTNV-1" source="0E-LU-rpmm0SCRFe6F6l-109" target="0E-LU-rpmm0SCRFe6F6l-111">
          <mxGeometry relative="1" as="geometry" />
        </mxCell>
        <mxCell id="0E-LU-rpmm0SCRFe6F6l-109" value="Primary" style="rounded=1;whiteSpace=wrap;html=1;fontSize=12;glass=0;strokeWidth=1;shadow=0;" vertex="1" parent="WIyWlLk6GJQsqaUBKTNV-1">
          <mxGeometry x="2014.5" y="1422" width="120" height="40" as="geometry" />
        </mxCell>
        <mxCell id="0E-LU-rpmm0SCRFe6F6l-110" style="edgeStyle=orthogonalEdgeStyle;rounded=0;orthogonalLoop=1;jettySize=auto;html=1;exitX=1;exitY=0.5;exitDx=0;exitDy=0;entryX=0;entryY=0.5;entryDx=0;entryDy=0;" edge="1" parent="WIyWlLk6GJQsqaUBKTNV-1" source="0E-LU-rpmm0SCRFe6F6l-111" target="0E-LU-rpmm0SCRFe6F6l-90">
          <mxGeometry relative="1" as="geometry" />
        </mxCell>
        <mxCell id="0E-LU-rpmm0SCRFe6F6l-111" value="LITERAL" style="rounded=1;whiteSpace=wrap;html=1;fontSize=12;glass=0;strokeWidth=1;shadow=0;" vertex="1" parent="WIyWlLk6GJQsqaUBKTNV-1">
          <mxGeometry x="2158.5" y="1422" width="120" height="40" as="geometry" />
        </mxCell>
        <mxCell id="0E-LU-rpmm0SCRFe6F6l-117" value="INTEGER" style="rounded=1;whiteSpace=wrap;html=1;fontSize=12;glass=0;strokeWidth=1;shadow=0;fillColor=#1ba1e2;fontColor=#ffffff;strokeColor=#006EAF;" vertex="1" parent="WIyWlLk6GJQsqaUBKTNV-1">
          <mxGeometry x="806" y="1428" width="120" height="40" as="geometry" />
        </mxCell>
        <mxCell id="0E-LU-rpmm0SCRFe6F6l-118" value="&quot;numFatorial&quot;" style="rounded=1;whiteSpace=wrap;html=1;fontSize=12;glass=0;strokeWidth=1;shadow=0;fillColor=#1ba1e2;fontColor=#ffffff;strokeColor=#006EAF;" vertex="1" parent="WIyWlLk6GJQsqaUBKTNV-1">
          <mxGeometry x="806" y="1488" width="120" height="40" as="geometry" />
        </mxCell>
        <mxCell id="0E-LU-rpmm0SCRFe6F6l-119" value=";" style="rounded=1;whiteSpace=wrap;html=1;fontSize=12;glass=0;strokeWidth=1;shadow=0;fillColor=#1ba1e2;fontColor=#ffffff;strokeColor=#006EAF;" vertex="1" parent="WIyWlLk6GJQsqaUBKTNV-1">
          <mxGeometry x="212" y="1428" width="120" height="40" as="geometry" />
        </mxCell>
        <mxCell id="0E-LU-rpmm0SCRFe6F6l-120" value="" style="edgeStyle=orthogonalEdgeStyle;rounded=0;orthogonalLoop=1;jettySize=auto;html=1;" edge="1" parent="WIyWlLk6GJQsqaUBKTNV-1" source="0E-LU-rpmm0SCRFe6F6l-122" target="0E-LU-rpmm0SCRFe6F6l-125">
          <mxGeometry relative="1" as="geometry" />
        </mxCell>
        <mxCell id="0E-LU-rpmm0SCRFe6F6l-121" style="edgeStyle=orthogonalEdgeStyle;rounded=0;orthogonalLoop=1;jettySize=auto;html=1;exitX=0.5;exitY=0;exitDx=0;exitDy=0;entryX=0.5;entryY=1;entryDx=0;entryDy=0;" edge="1" parent="WIyWlLk6GJQsqaUBKTNV-1" source="0E-LU-rpmm0SCRFe6F6l-122" target="0E-LU-rpmm0SCRFe6F6l-119">
          <mxGeometry relative="1" as="geometry" />
        </mxCell>
        <mxCell id="0E-LU-rpmm0SCRFe6F6l-122" value="Statement&lt;br&gt;" style="rounded=1;whiteSpace=wrap;html=1;fontSize=12;glass=0;strokeWidth=1;shadow=0;" vertex="1" parent="WIyWlLk6GJQsqaUBKTNV-1">
          <mxGeometry x="212" y="1488" width="120" height="40" as="geometry" />
        </mxCell>
        <mxCell id="0E-LU-rpmm0SCRFe6F6l-123" value="" style="edgeStyle=orthogonalEdgeStyle;rounded=0;orthogonalLoop=1;jettySize=auto;html=1;" edge="1" parent="WIyWlLk6GJQsqaUBKTNV-1" source="0E-LU-rpmm0SCRFe6F6l-125" target="0E-LU-rpmm0SCRFe6F6l-127">
          <mxGeometry relative="1" as="geometry" />
        </mxCell>
        <mxCell id="0E-LU-rpmm0SCRFe6F6l-124" value="" style="edgeStyle=orthogonalEdgeStyle;rounded=0;orthogonalLoop=1;jettySize=auto;html=1;" edge="1" parent="WIyWlLk6GJQsqaUBKTNV-1" source="0E-LU-rpmm0SCRFe6F6l-125" target="0E-LU-rpmm0SCRFe6F6l-133">
          <mxGeometry relative="1" as="geometry" />
        </mxCell>
        <mxCell id="0E-LU-rpmm0SCRFe6F6l-125" value="NameDecl" style="rounded=1;whiteSpace=wrap;html=1;fontSize=12;glass=0;strokeWidth=1;shadow=0;" vertex="1" parent="WIyWlLk6GJQsqaUBKTNV-1">
          <mxGeometry x="370" y="1488" width="120" height="40" as="geometry" />
        </mxCell>
        <mxCell id="0E-LU-rpmm0SCRFe6F6l-126" value="" style="edgeStyle=orthogonalEdgeStyle;rounded=0;orthogonalLoop=1;jettySize=auto;html=1;" edge="1" parent="WIyWlLk6GJQsqaUBKTNV-1" source="0E-LU-rpmm0SCRFe6F6l-127" target="0E-LU-rpmm0SCRFe6F6l-129">
          <mxGeometry relative="1" as="geometry" />
        </mxCell>
        <mxCell id="0E-LU-rpmm0SCRFe6F6l-127" value="ModifierList" style="rounded=1;whiteSpace=wrap;html=1;fontSize=12;glass=0;strokeWidth=1;shadow=0;" vertex="1" parent="WIyWlLk6GJQsqaUBKTNV-1">
          <mxGeometry x="370" y="1428" width="120" height="40" as="geometry" />
        </mxCell>
        <mxCell id="0E-LU-rpmm0SCRFe6F6l-128" value="" style="edgeStyle=orthogonalEdgeStyle;rounded=0;orthogonalLoop=1;jettySize=auto;html=1;" edge="1" parent="WIyWlLk6GJQsqaUBKTNV-1" source="0E-LU-rpmm0SCRFe6F6l-129" target="0E-LU-rpmm0SCRFe6F6l-131">
          <mxGeometry relative="1" as="geometry" />
        </mxCell>
        <mxCell id="0E-LU-rpmm0SCRFe6F6l-129" value="ModifierList" style="rounded=1;whiteSpace=wrap;html=1;fontSize=12;glass=0;strokeWidth=1;shadow=0;" vertex="1" parent="WIyWlLk6GJQsqaUBKTNV-1">
          <mxGeometry x="513" y="1428" width="120" height="40" as="geometry" />
        </mxCell>
        <mxCell id="0E-LU-rpmm0SCRFe6F6l-137" style="edgeStyle=orthogonalEdgeStyle;rounded=0;orthogonalLoop=1;jettySize=auto;html=1;exitX=1;exitY=0.5;exitDx=0;exitDy=0;entryX=0;entryY=0.5;entryDx=0;entryDy=0;" edge="1" parent="WIyWlLk6GJQsqaUBKTNV-1" source="0E-LU-rpmm0SCRFe6F6l-131" target="0E-LU-rpmm0SCRFe6F6l-117">
          <mxGeometry relative="1" as="geometry" />
        </mxCell>
        <mxCell id="0E-LU-rpmm0SCRFe6F6l-131" value="Modifier" style="rounded=1;whiteSpace=wrap;html=1;fontSize=12;glass=0;strokeWidth=1;shadow=0;" vertex="1" parent="WIyWlLk6GJQsqaUBKTNV-1">
          <mxGeometry x="661" y="1428" width="120" height="40" as="geometry" />
        </mxCell>
        <mxCell id="0E-LU-rpmm0SCRFe6F6l-132" style="edgeStyle=orthogonalEdgeStyle;rounded=0;orthogonalLoop=1;jettySize=auto;html=1;exitX=1;exitY=0.5;exitDx=0;exitDy=0;entryX=0;entryY=0.5;entryDx=0;entryDy=0;" edge="1" parent="WIyWlLk6GJQsqaUBKTNV-1" source="0E-LU-rpmm0SCRFe6F6l-133" target="0E-LU-rpmm0SCRFe6F6l-135">
          <mxGeometry relative="1" as="geometry" />
        </mxCell>
        <mxCell id="0E-LU-rpmm0SCRFe6F6l-133" value="Id_List" style="rounded=1;whiteSpace=wrap;html=1;fontSize=12;glass=0;strokeWidth=1;shadow=0;" vertex="1" parent="WIyWlLk6GJQsqaUBKTNV-1">
          <mxGeometry x="513" y="1488" width="120" height="40" as="geometry" />
        </mxCell>
        <mxCell id="0E-LU-rpmm0SCRFe6F6l-138" style="edgeStyle=orthogonalEdgeStyle;rounded=0;orthogonalLoop=1;jettySize=auto;html=1;exitX=1;exitY=0.5;exitDx=0;exitDy=0;entryX=0;entryY=0.5;entryDx=0;entryDy=0;" edge="1" parent="WIyWlLk6GJQsqaUBKTNV-1" source="0E-LU-rpmm0SCRFe6F6l-135" target="0E-LU-rpmm0SCRFe6F6l-118">
          <mxGeometry relative="1" as="geometry" />
        </mxCell>
        <mxCell id="0E-LU-rpmm0SCRFe6F6l-135" value="ID" style="rounded=1;whiteSpace=wrap;html=1;fontSize=12;glass=0;strokeWidth=1;shadow=0;" vertex="1" parent="WIyWlLk6GJQsqaUBKTNV-1">
          <mxGeometry x="661" y="1488" width="120" height="40" as="geometry" />
        </mxCell>
        <mxCell id="0E-LU-rpmm0SCRFe6F6l-150" value="" style="edgeStyle=orthogonalEdgeStyle;rounded=0;orthogonalLoop=1;jettySize=auto;html=1;" edge="1" parent="WIyWlLk6GJQsqaUBKTNV-1" source="0E-LU-rpmm0SCRFe6F6l-147" target="0E-LU-rpmm0SCRFe6F6l-149">
          <mxGeometry relative="1" as="geometry" />
        </mxCell>
        <mxCell id="0E-LU-rpmm0SCRFe6F6l-152" style="edgeStyle=orthogonalEdgeStyle;rounded=0;orthogonalLoop=1;jettySize=auto;html=1;exitX=1;exitY=0.5;exitDx=0;exitDy=0;entryX=0;entryY=0.5;entryDx=0;entryDy=0;" edge="1" parent="WIyWlLk6GJQsqaUBKTNV-1" source="0E-LU-rpmm0SCRFe6F6l-147" target="O5qcWpgSKs4IgxdbwhYX-39">
          <mxGeometry relative="1" as="geometry" />
        </mxCell>
        <mxCell id="0E-LU-rpmm0SCRFe6F6l-147" value="StatementList" style="rounded=1;whiteSpace=wrap;html=1;fontSize=12;glass=0;strokeWidth=1;shadow=0;fillColor=#60a917;fontColor=#ffffff;strokeColor=#2D7600;" vertex="1" parent="WIyWlLk6GJQsqaUBKTNV-1">
          <mxGeometry x="537" y="260" width="120" height="40" as="geometry" />
        </mxCell>
        <mxCell id="0E-LU-rpmm0SCRFe6F6l-151" style="edgeStyle=orthogonalEdgeStyle;rounded=0;orthogonalLoop=1;jettySize=auto;html=1;exitX=1;exitY=0.5;exitDx=0;exitDy=0;entryX=0;entryY=0.5;entryDx=0;entryDy=0;" edge="1" parent="WIyWlLk6GJQsqaUBKTNV-1" source="0E-LU-rpmm0SCRFe6F6l-149" target="O5qcWpgSKs4IgxdbwhYX-76">
          <mxGeometry relative="1" as="geometry" />
        </mxCell>
        <mxCell id="0E-LU-rpmm0SCRFe6F6l-149" value="StatementList" style="rounded=1;whiteSpace=wrap;html=1;fontSize=12;glass=0;strokeWidth=1;shadow=0;fillColor=#60a917;fontColor=#ffffff;strokeColor=#2D7600;" vertex="1" parent="WIyWlLk6GJQsqaUBKTNV-1">
          <mxGeometry x="537" y="544" width="120" height="40" as="geometry" />
        </mxCell>
        <mxCell id="Zxj47xlA75A2O7vvZq-7-4" value="" style="edgeStyle=orthogonalEdgeStyle;rounded=0;orthogonalLoop=1;jettySize=auto;html=1;" edge="1" parent="WIyWlLk6GJQsqaUBKTNV-1" source="Zxj47xlA75A2O7vvZq-7-1" target="Zxj47xlA75A2O7vvZq-7-3">
          <mxGeometry relative="1" as="geometry" />
        </mxCell>
        <mxCell id="Zxj47xlA75A2O7vvZq-7-6" style="edgeStyle=orthogonalEdgeStyle;rounded=0;orthogonalLoop=1;jettySize=auto;html=1;exitX=1;exitY=0.5;exitDx=0;exitDy=0;entryX=0;entryY=0.5;entryDx=0;entryDy=0;" edge="1" parent="WIyWlLk6GJQsqaUBKTNV-1" source="Zxj47xlA75A2O7vvZq-7-1" target="O5qcWpgSKs4IgxdbwhYX-183">
          <mxGeometry relative="1" as="geometry" />
        </mxCell>
        <mxCell id="Zxj47xlA75A2O7vvZq-7-1" value="StatementList" style="rounded=1;whiteSpace=wrap;html=1;fontSize=12;glass=0;strokeWidth=1;shadow=0;fillColor=#60a917;strokeColor=#2D7600;fontColor=#ffffff;" vertex="1" parent="WIyWlLk6GJQsqaUBKTNV-1">
          <mxGeometry x="695" y="823" width="120" height="40" as="geometry" />
        </mxCell>
        <mxCell id="Zxj47xlA75A2O7vvZq-7-5" style="edgeStyle=orthogonalEdgeStyle;rounded=0;orthogonalLoop=1;jettySize=auto;html=1;exitX=1;exitY=0.5;exitDx=0;exitDy=0;entryX=0;entryY=0.5;entryDx=0;entryDy=0;" edge="1" parent="WIyWlLk6GJQsqaUBKTNV-1" source="Zxj47xlA75A2O7vvZq-7-3" target="O5qcWpgSKs4IgxdbwhYX-412">
          <mxGeometry relative="1" as="geometry" />
        </mxCell>
        <mxCell id="Zxj47xlA75A2O7vvZq-7-3" value="StatementList" style="rounded=1;whiteSpace=wrap;html=1;fontSize=12;glass=0;strokeWidth=1;shadow=0;fillColor=#60a917;strokeColor=#2D7600;fontColor=#ffffff;" vertex="1" parent="WIyWlLk6GJQsqaUBKTNV-1">
          <mxGeometry x="695" y="1162" width="120" height="40" as="geometry" />
        </mxCell>
        <mxCell id="WOss_ckVHwlz0GYuxbEu-0" value="&quot;n&quot;" style="rounded=1;whiteSpace=wrap;html=1;fontSize=12;glass=0;strokeWidth=1;shadow=0;fillColor=#1ba1e2;fontColor=#ffffff;strokeColor=#006EAF;" vertex="1" parent="WIyWlLk6GJQsqaUBKTNV-1">
          <mxGeometry x="1738.5" y="504" width="120" height="40" as="geometry" />
        </mxCell>
        <mxCell id="WOss_ckVHwlz0GYuxbEu-1" value="" style="edgeStyle=orthogonalEdgeStyle;rounded=0;orthogonalLoop=1;jettySize=auto;html=1;" edge="1" parent="WIyWlLk6GJQsqaUBKTNV-1" source="WOss_ckVHwlz0GYuxbEu-2" target="WOss_ckVHwlz0GYuxbEu-4">
          <mxGeometry relative="1" as="geometry" />
        </mxCell>
        <mxCell id="WOss_ckVHwlz0GYuxbEu-2" value="Primary" style="rounded=1;whiteSpace=wrap;html=1;fontSize=12;glass=0;strokeWidth=1;shadow=0;" vertex="1" parent="WIyWlLk6GJQsqaUBKTNV-1">
          <mxGeometry x="1318.5" y="505" width="120" height="39" as="geometry" />
        </mxCell>
        <mxCell id="WOss_ckVHwlz0GYuxbEu-3" value="" style="edgeStyle=orthogonalEdgeStyle;rounded=0;orthogonalLoop=1;jettySize=auto;html=1;" edge="1" parent="WIyWlLk6GJQsqaUBKTNV-1" source="WOss_ckVHwlz0GYuxbEu-4" target="WOss_ckVHwlz0GYuxbEu-6">
          <mxGeometry relative="1" as="geometry" />
        </mxCell>
        <mxCell id="WOss_ckVHwlz0GYuxbEu-4" value="Name" style="rounded=1;whiteSpace=wrap;html=1;fontSize=12;glass=0;strokeWidth=1;shadow=0;" vertex="1" parent="WIyWlLk6GJQsqaUBKTNV-1">
          <mxGeometry x="1458.5" y="504" width="120" height="40" as="geometry" />
        </mxCell>
        <mxCell id="WOss_ckVHwlz0GYuxbEu-5" style="edgeStyle=orthogonalEdgeStyle;rounded=0;orthogonalLoop=1;jettySize=auto;html=1;exitX=1;exitY=0.5;exitDx=0;exitDy=0;entryX=0;entryY=0.5;entryDx=0;entryDy=0;" edge="1" parent="WIyWlLk6GJQsqaUBKTNV-1" source="WOss_ckVHwlz0GYuxbEu-6" target="WOss_ckVHwlz0GYuxbEu-0">
          <mxGeometry relative="1" as="geometry" />
        </mxCell>
        <mxCell id="WOss_ckVHwlz0GYuxbEu-6" value="ID" style="rounded=1;whiteSpace=wrap;html=1;fontSize=12;glass=0;strokeWidth=1;shadow=0;" vertex="1" parent="WIyWlLk6GJQsqaUBKTNV-1">
          <mxGeometry x="1598.5" y="504" width="120" height="40" as="geometry" />
        </mxCell>
        <mxCell id="WOss_ckVHwlz0GYuxbEu-67" style="edgeStyle=orthogonalEdgeStyle;rounded=0;orthogonalLoop=1;jettySize=auto;html=1;exitX=1;exitY=0.5;exitDx=0;exitDy=0;entryX=0;entryY=0.5;entryDx=0;entryDy=0;" edge="1" parent="WIyWlLk6GJQsqaUBKTNV-1" source="WOss_ckVHwlz0GYuxbEu-65" target="O5qcWpgSKs4IgxdbwhYX-591">
          <mxGeometry relative="1" as="geometry" />
        </mxCell>
        <mxCell id="WOss_ckVHwlz0GYuxbEu-65" value="Primary" style="rounded=1;whiteSpace=wrap;html=1;fontSize=12;glass=0;strokeWidth=1;shadow=0;" vertex="1" parent="WIyWlLk6GJQsqaUBKTNV-1">
          <mxGeometry x="814" y="1976" width="120" height="40" as="geometry" />
        </mxCell>
        <mxCell id="WOss_ckVHwlz0GYuxbEu-70" style="edgeStyle=orthogonalEdgeStyle;rounded=0;orthogonalLoop=1;jettySize=auto;html=1;exitX=1;exitY=0.5;exitDx=0;exitDy=0;entryX=0;entryY=0.5;entryDx=0;entryDy=0;" edge="1" parent="WIyWlLk6GJQsqaUBKTNV-1" source="WOss_ckVHwlz0GYuxbEu-69" target="O5qcWpgSKs4IgxdbwhYX-437">
          <mxGeometry relative="1" as="geometry" />
        </mxCell>
        <mxCell id="WOss_ckVHwlz0GYuxbEu-69" value="Primary" style="rounded=1;whiteSpace=wrap;html=1;fontSize=12;glass=0;strokeWidth=1;shadow=0;" vertex="1" parent="WIyWlLk6GJQsqaUBKTNV-1">
          <mxGeometry x="1297.5" y="1276" width="120" height="40" as="geometry" />
        </mxCell>
        <mxCell id="I1Nj4VJWrZhrebcEaoRm-8" style="edgeStyle=orthogonalEdgeStyle;rounded=0;orthogonalLoop=1;jettySize=auto;html=1;exitX=1;exitY=0.5;exitDx=0;exitDy=0;entryX=0;entryY=0.5;entryDx=0;entryDy=0;" edge="1" parent="WIyWlLk6GJQsqaUBKTNV-1" source="I1Nj4VJWrZhrebcEaoRm-6" target="O5qcWpgSKs4IgxdbwhYX-262">
          <mxGeometry relative="1" as="geometry" />
        </mxCell>
        <mxCell id="I1Nj4VJWrZhrebcEaoRm-9" style="edgeStyle=orthogonalEdgeStyle;rounded=0;orthogonalLoop=1;jettySize=auto;html=1;exitX=0.75;exitY=1;exitDx=0;exitDy=0;entryX=0;entryY=0.5;entryDx=0;entryDy=0;" edge="1" parent="WIyWlLk6GJQsqaUBKTNV-1" source="I1Nj4VJWrZhrebcEaoRm-6" target="O5qcWpgSKs4IgxdbwhYX-202">
          <mxGeometry relative="1" as="geometry" />
        </mxCell>
        <mxCell id="I1Nj4VJWrZhrebcEaoRm-10" style="edgeStyle=orthogonalEdgeStyle;rounded=0;orthogonalLoop=1;jettySize=auto;html=1;exitX=0.5;exitY=1;exitDx=0;exitDy=0;entryX=0;entryY=0.5;entryDx=0;entryDy=0;" edge="1" parent="WIyWlLk6GJQsqaUBKTNV-1" source="I1Nj4VJWrZhrebcEaoRm-6" target="O5qcWpgSKs4IgxdbwhYX-266">
          <mxGeometry relative="1" as="geometry" />
        </mxCell>
        <mxCell id="I1Nj4VJWrZhrebcEaoRm-11" style="edgeStyle=orthogonalEdgeStyle;rounded=0;orthogonalLoop=1;jettySize=auto;html=1;exitX=0.25;exitY=1;exitDx=0;exitDy=0;entryX=0;entryY=0.5;entryDx=0;entryDy=0;" edge="1" parent="WIyWlLk6GJQsqaUBKTNV-1" source="I1Nj4VJWrZhrebcEaoRm-6" target="O5qcWpgSKs4IgxdbwhYX-206">
          <mxGeometry relative="1" as="geometry" />
        </mxCell>
        <mxCell id="I1Nj4VJWrZhrebcEaoRm-6" value="Calfunc" style="rounded=1;whiteSpace=wrap;html=1;fontSize=12;glass=0;strokeWidth=1;shadow=0;" vertex="1" parent="WIyWlLk6GJQsqaUBKTNV-1">
          <mxGeometry x="1927" y="919" width="120" height="40" as="geometry" />
        </mxCell>
        <mxCell id="MsqvOlsJMTI6k4EGRhwS-5" style="edgeStyle=orthogonalEdgeStyle;rounded=0;orthogonalLoop=1;jettySize=auto;html=1;exitX=1;exitY=0.5;exitDx=0;exitDy=0;entryX=0;entryY=0.5;entryDx=0;entryDy=0;" edge="1" parent="WIyWlLk6GJQsqaUBKTNV-1" source="hoxSKYSqC14O6qdJ_4Br-1" target="hoxSKYSqC14O6qdJ_4Br-20">
          <mxGeometry relative="1" as="geometry">
            <Array as="points">
              <mxPoint x="1388" y="443" />
              <mxPoint x="1388" y="412" />
            </Array>
          </mxGeometry>
        </mxCell>
        <mxCell id="MsqvOlsJMTI6k4EGRhwS-7" style="edgeStyle=orthogonalEdgeStyle;rounded=0;orthogonalLoop=1;jettySize=auto;html=1;exitX=1;exitY=0.75;exitDx=0;exitDy=0;" edge="1" parent="WIyWlLk6GJQsqaUBKTNV-1" source="hoxSKYSqC14O6qdJ_4Br-1" target="MsqvOlsJMTI6k4EGRhwS-6">
          <mxGeometry relative="1" as="geometry" />
        </mxCell>
        <mxCell id="MsqvOlsJMTI6k4EGRhwS-18" style="edgeStyle=orthogonalEdgeStyle;rounded=0;orthogonalLoop=1;jettySize=auto;html=1;exitX=1;exitY=0.25;exitDx=0;exitDy=0;entryX=0;entryY=0.75;entryDx=0;entryDy=0;" edge="1" parent="WIyWlLk6GJQsqaUBKTNV-1" source="hoxSKYSqC14O6qdJ_4Br-1" target="hoxSKYSqC14O6qdJ_4Br-18">
          <mxGeometry relative="1" as="geometry" />
        </mxCell>
        <mxCell id="hoxSKYSqC14O6qdJ_4Br-1" value="Expression" style="rounded=1;whiteSpace=wrap;html=1;fontSize=12;glass=0;strokeWidth=1;shadow=0;" vertex="1" parent="WIyWlLk6GJQsqaUBKTNV-1">
          <mxGeometry x="1177" y="423" width="120" height="40" as="geometry" />
        </mxCell>
        <mxCell id="MsqvOlsJMTI6k4EGRhwS-3" style="edgeStyle=orthogonalEdgeStyle;rounded=0;orthogonalLoop=1;jettySize=auto;html=1;exitX=1;exitY=0.5;exitDx=0;exitDy=0;entryX=0;entryY=0.5;entryDx=0;entryDy=0;" edge="1" parent="WIyWlLk6GJQsqaUBKTNV-1" source="hoxSKYSqC14O6qdJ_4Br-2" target="O5qcWpgSKs4IgxdbwhYX-70">
          <mxGeometry relative="1" as="geometry" />
        </mxCell>
        <mxCell id="hoxSKYSqC14O6qdJ_4Br-2" value="BinOp" style="rounded=1;whiteSpace=wrap;html=1;fontSize=12;glass=0;strokeWidth=1;shadow=0;" vertex="1" parent="WIyWlLk6GJQsqaUBKTNV-1">
          <mxGeometry x="1178" y="464" width="120" height="40" as="geometry" />
        </mxCell>
        <mxCell id="MsqvOlsJMTI6k4EGRhwS-2" style="edgeStyle=orthogonalEdgeStyle;rounded=0;orthogonalLoop=1;jettySize=auto;html=1;exitX=1;exitY=0.5;exitDx=0;exitDy=0;entryX=0;entryY=0.5;entryDx=0;entryDy=0;" edge="1" parent="WIyWlLk6GJQsqaUBKTNV-1" source="hoxSKYSqC14O6qdJ_4Br-3" target="WOss_ckVHwlz0GYuxbEu-2">
          <mxGeometry relative="1" as="geometry" />
        </mxCell>
        <mxCell id="hoxSKYSqC14O6qdJ_4Br-3" value="Expression" style="rounded=1;whiteSpace=wrap;html=1;fontSize=12;glass=0;strokeWidth=1;shadow=0;" vertex="1" parent="WIyWlLk6GJQsqaUBKTNV-1">
          <mxGeometry x="1178" y="504" width="120" height="40" as="geometry" />
        </mxCell>
        <mxCell id="hoxSKYSqC14O6qdJ_4Br-17" style="edgeStyle=orthogonalEdgeStyle;rounded=0;orthogonalLoop=1;jettySize=auto;html=1;exitX=1;exitY=0.5;exitDx=0;exitDy=0;entryX=0;entryY=0.5;entryDx=0;entryDy=0;" edge="1" parent="WIyWlLk6GJQsqaUBKTNV-1" source="hoxSKYSqC14O6qdJ_4Br-18" target="hoxSKYSqC14O6qdJ_4Br-25">
          <mxGeometry relative="1" as="geometry" />
        </mxCell>
        <mxCell id="hoxSKYSqC14O6qdJ_4Br-18" value="Expression" style="rounded=1;whiteSpace=wrap;html=1;fontSize=12;glass=0;strokeWidth=1;shadow=0;" vertex="1" parent="WIyWlLk6GJQsqaUBKTNV-1">
          <mxGeometry x="1461" y="352" width="120" height="40" as="geometry" />
        </mxCell>
        <mxCell id="MsqvOlsJMTI6k4EGRhwS-11" style="edgeStyle=orthogonalEdgeStyle;rounded=0;orthogonalLoop=1;jettySize=auto;html=1;exitX=1;exitY=0.5;exitDx=0;exitDy=0;entryX=0;entryY=0.5;entryDx=0;entryDy=0;" edge="1" parent="WIyWlLk6GJQsqaUBKTNV-1" source="hoxSKYSqC14O6qdJ_4Br-20" target="MsqvOlsJMTI6k4EGRhwS-10">
          <mxGeometry relative="1" as="geometry" />
        </mxCell>
        <mxCell id="hoxSKYSqC14O6qdJ_4Br-20" value="BinOp" style="rounded=1;whiteSpace=wrap;html=1;fontSize=12;glass=0;strokeWidth=1;shadow=0;" vertex="1" parent="WIyWlLk6GJQsqaUBKTNV-1">
          <mxGeometry x="1462" y="392" width="120" height="40" as="geometry" />
        </mxCell>
        <mxCell id="hoxSKYSqC14O6qdJ_4Br-23" value="&quot;n&quot;" style="rounded=1;whiteSpace=wrap;html=1;fontSize=12;glass=0;strokeWidth=1;shadow=0;fillColor=#1ba1e2;fontColor=#ffffff;strokeColor=#006EAF;" vertex="1" parent="WIyWlLk6GJQsqaUBKTNV-1">
          <mxGeometry x="2061.5" y="352" width="120" height="40" as="geometry" />
        </mxCell>
        <mxCell id="hoxSKYSqC14O6qdJ_4Br-24" value="" style="edgeStyle=orthogonalEdgeStyle;rounded=0;orthogonalLoop=1;jettySize=auto;html=1;" edge="1" parent="WIyWlLk6GJQsqaUBKTNV-1" source="hoxSKYSqC14O6qdJ_4Br-25" target="hoxSKYSqC14O6qdJ_4Br-27">
          <mxGeometry relative="1" as="geometry" />
        </mxCell>
        <mxCell id="hoxSKYSqC14O6qdJ_4Br-25" value="Primary" style="rounded=1;whiteSpace=wrap;html=1;fontSize=12;glass=0;strokeWidth=1;shadow=0;" vertex="1" parent="WIyWlLk6GJQsqaUBKTNV-1">
          <mxGeometry x="1633" y="352" width="120" height="40" as="geometry" />
        </mxCell>
        <mxCell id="hoxSKYSqC14O6qdJ_4Br-26" value="" style="edgeStyle=orthogonalEdgeStyle;rounded=0;orthogonalLoop=1;jettySize=auto;html=1;" edge="1" parent="WIyWlLk6GJQsqaUBKTNV-1" source="hoxSKYSqC14O6qdJ_4Br-27" target="hoxSKYSqC14O6qdJ_4Br-29">
          <mxGeometry relative="1" as="geometry" />
        </mxCell>
        <mxCell id="hoxSKYSqC14O6qdJ_4Br-27" value="Name" style="rounded=1;whiteSpace=wrap;html=1;fontSize=12;glass=0;strokeWidth=1;shadow=0;" vertex="1" parent="WIyWlLk6GJQsqaUBKTNV-1">
          <mxGeometry x="1781.5" y="352" width="120" height="40" as="geometry" />
        </mxCell>
        <mxCell id="hoxSKYSqC14O6qdJ_4Br-28" style="edgeStyle=orthogonalEdgeStyle;rounded=0;orthogonalLoop=1;jettySize=auto;html=1;exitX=1;exitY=0.5;exitDx=0;exitDy=0;entryX=0;entryY=0.5;entryDx=0;entryDy=0;" edge="1" parent="WIyWlLk6GJQsqaUBKTNV-1" source="hoxSKYSqC14O6qdJ_4Br-29" target="hoxSKYSqC14O6qdJ_4Br-23">
          <mxGeometry relative="1" as="geometry" />
        </mxCell>
        <mxCell id="hoxSKYSqC14O6qdJ_4Br-29" value="ID" style="rounded=1;whiteSpace=wrap;html=1;fontSize=12;glass=0;strokeWidth=1;shadow=0;" vertex="1" parent="WIyWlLk6GJQsqaUBKTNV-1">
          <mxGeometry x="1921.5" y="352" width="120" height="40" as="geometry" />
        </mxCell>
        <mxCell id="hoxSKYSqC14O6qdJ_4Br-30" value="&quot;&amp;gt;&quot;" style="rounded=1;whiteSpace=wrap;html=1;fontSize=12;glass=0;strokeWidth=1;shadow=0;fillColor=#1ba1e2;fontColor=#ffffff;strokeColor=#006EAF;" vertex="1" parent="WIyWlLk6GJQsqaUBKTNV-1">
          <mxGeometry x="1177" y="543" width="120" height="40" as="geometry" />
        </mxCell>
        <mxCell id="hoxSKYSqC14O6qdJ_4Br-31" value="&quot;0&quot;" style="rounded=1;whiteSpace=wrap;html=1;fontSize=12;glass=0;strokeWidth=1;shadow=0;fillColor=#1ba1e2;fontColor=#ffffff;strokeColor=#006EAF;" vertex="1" parent="WIyWlLk6GJQsqaUBKTNV-1">
          <mxGeometry x="1458" y="583" width="120" height="40" as="geometry" />
        </mxCell>
        <mxCell id="hoxSKYSqC14O6qdJ_4Br-32" value="" style="edgeStyle=orthogonalEdgeStyle;rounded=0;orthogonalLoop=1;jettySize=auto;html=1;" edge="1" parent="WIyWlLk6GJQsqaUBKTNV-1" source="hoxSKYSqC14O6qdJ_4Br-33" target="hoxSKYSqC14O6qdJ_4Br-35">
          <mxGeometry relative="1" as="geometry" />
        </mxCell>
        <mxCell id="hoxSKYSqC14O6qdJ_4Br-33" value="Primary" style="rounded=1;whiteSpace=wrap;html=1;fontSize=12;glass=0;strokeWidth=1;shadow=0;" vertex="1" parent="WIyWlLk6GJQsqaUBKTNV-1">
          <mxGeometry x="1178" y="583" width="120" height="40" as="geometry" />
        </mxCell>
        <mxCell id="hoxSKYSqC14O6qdJ_4Br-34" style="edgeStyle=orthogonalEdgeStyle;rounded=0;orthogonalLoop=1;jettySize=auto;html=1;exitX=1;exitY=0.5;exitDx=0;exitDy=0;entryX=0;entryY=0.5;entryDx=0;entryDy=0;" edge="1" parent="WIyWlLk6GJQsqaUBKTNV-1" source="hoxSKYSqC14O6qdJ_4Br-35" target="hoxSKYSqC14O6qdJ_4Br-31">
          <mxGeometry relative="1" as="geometry" />
        </mxCell>
        <mxCell id="hoxSKYSqC14O6qdJ_4Br-35" value="LITERAL" style="rounded=1;whiteSpace=wrap;html=1;fontSize=12;glass=0;strokeWidth=1;shadow=0;" vertex="1" parent="WIyWlLk6GJQsqaUBKTNV-1">
          <mxGeometry x="1318" y="583" width="120" height="40" as="geometry" />
        </mxCell>
        <mxCell id="MsqvOlsJMTI6k4EGRhwS-17" style="edgeStyle=orthogonalEdgeStyle;rounded=0;orthogonalLoop=1;jettySize=auto;html=1;exitX=1;exitY=0.5;exitDx=0;exitDy=0;entryX=0;entryY=0.5;entryDx=0;entryDy=0;" edge="1" parent="WIyWlLk6GJQsqaUBKTNV-1" source="MsqvOlsJMTI6k4EGRhwS-6" target="MsqvOlsJMTI6k4EGRhwS-14">
          <mxGeometry relative="1" as="geometry" />
        </mxCell>
        <mxCell id="MsqvOlsJMTI6k4EGRhwS-6" value="Expression" style="rounded=1;whiteSpace=wrap;html=1;fontSize=12;glass=0;strokeWidth=1;shadow=0;" vertex="1" parent="WIyWlLk6GJQsqaUBKTNV-1">
          <mxGeometry x="1462" y="433" width="120" height="40" as="geometry" />
        </mxCell>
        <mxCell id="MsqvOlsJMTI6k4EGRhwS-10" value="&quot;!=&quot;" style="rounded=1;whiteSpace=wrap;html=1;fontSize=12;glass=0;strokeWidth=1;shadow=0;fillColor=#1ba1e2;fontColor=#ffffff;strokeColor=#006EAF;" vertex="1" parent="WIyWlLk6GJQsqaUBKTNV-1">
          <mxGeometry x="1633" y="392" width="120" height="40" as="geometry" />
        </mxCell>
        <mxCell id="MsqvOlsJMTI6k4EGRhwS-12" value="&quot;0&quot;" style="rounded=1;whiteSpace=wrap;html=1;fontSize=12;glass=0;strokeWidth=1;shadow=0;fillColor=#1ba1e2;fontColor=#ffffff;strokeColor=#006EAF;" vertex="1" parent="WIyWlLk6GJQsqaUBKTNV-1">
          <mxGeometry x="1913" y="433" width="120" height="40" as="geometry" />
        </mxCell>
        <mxCell id="MsqvOlsJMTI6k4EGRhwS-13" value="" style="edgeStyle=orthogonalEdgeStyle;rounded=0;orthogonalLoop=1;jettySize=auto;html=1;" edge="1" parent="WIyWlLk6GJQsqaUBKTNV-1" source="MsqvOlsJMTI6k4EGRhwS-14" target="MsqvOlsJMTI6k4EGRhwS-16">
          <mxGeometry relative="1" as="geometry" />
        </mxCell>
        <mxCell id="MsqvOlsJMTI6k4EGRhwS-14" value="Primary" style="rounded=1;whiteSpace=wrap;html=1;fontSize=12;glass=0;strokeWidth=1;shadow=0;" vertex="1" parent="WIyWlLk6GJQsqaUBKTNV-1">
          <mxGeometry x="1633" y="433" width="120" height="40" as="geometry" />
        </mxCell>
        <mxCell id="MsqvOlsJMTI6k4EGRhwS-15" style="edgeStyle=orthogonalEdgeStyle;rounded=0;orthogonalLoop=1;jettySize=auto;html=1;exitX=1;exitY=0.5;exitDx=0;exitDy=0;entryX=0;entryY=0.5;entryDx=0;entryDy=0;" edge="1" parent="WIyWlLk6GJQsqaUBKTNV-1" source="MsqvOlsJMTI6k4EGRhwS-16" target="MsqvOlsJMTI6k4EGRhwS-12">
          <mxGeometry relative="1" as="geometry" />
        </mxCell>
        <mxCell id="MsqvOlsJMTI6k4EGRhwS-16" value="LITERAL" style="rounded=1;whiteSpace=wrap;html=1;fontSize=12;glass=0;strokeWidth=1;shadow=0;" vertex="1" parent="WIyWlLk6GJQsqaUBKTNV-1">
          <mxGeometry x="1773" y="433" width="120" height="40" as="geometry" />
        </mxCell>
      </root>
    </mxGraphModel>
  </diagram>
</mxfile>
